<svg id="Layer_1" data-name="Layer 1" xmlns="http://www.w3.org/2000/svg" width="340" height="384" viewBox="0 0 340 384"><defs><style>.cls-1{fill:#f2748e;}.cls-2{fill:none;}</style></defs><path class="cls-1" d="M389.7773,551.0025a7.4994,7.4994,0,0,0-10.379-2.192,147.3777,147.3777,0,0,1-80.641,23.887c-81.578,0-147.949-66.371-147.949-147.949a147.2017,147.2017,0,0,1,25.222-82.656,7.5,7.5,0,1,0-12.433-8.391,162.9753,162.9753,0,0,0,223.988,227.68,7.4994,7.4994,0,0,0,2.192-10.379Zm0,0" transform="translate(-135.4683 -203.6975)"/><path class="cls-1" d="M414.9723,528.26a7.4986,7.4986,0,0,0-10.606.102l-.25.254a7.5007,7.5007,0,1,0,10.6489,10.566l.3081-.316a7.4977,7.4977,0,0,0-.101-10.606Zm0,0" transform="translate(-135.4683 -203.6975)"/><rect class="cls-2" width="340" height="384"/><path class="cls-1" d="M298.7613,318.44a7.5,7.5,0,0,0-7.5,7.5v16.504a7.5,7.5,0,0,0,15,0V325.94a7.5021,7.5021,0,0,0-7.5-7.5Zm0,0" transform="translate(-135.4683 -203.6975)"/><path class="cls-1" d="M373.9253,349.5805a7.4877,7.4877,0,1,0,2.199,5.301,7.5367,7.5367,0,0,0-2.199-5.301Zm0,0" transform="translate(-135.4683 -203.6975)"/><path class="cls-1" d="M397.5663,417.2485h-16.504a7.5,7.5,0,0,0,0,15h16.504a7.5,7.5,0,0,0,0-15Zm0,0" transform="translate(-135.4683 -203.6975)"/><path class="cls-1" d="M373.9253,489.3065a7.4937,7.4937,0,1,0,2.199,5.305,7.5542,7.5542,0,0,0-2.199-5.305Zm0,0" transform="translate(-135.4683 -203.6975)"/><path class="cls-1" d="M298.7613,499.5525a7.497,7.497,0,0,0-7.5,7.5v16.5a7.5,7.5,0,0,0,15,0v-16.5a7.5021,7.5021,0,0,0-7.5-7.5Zm0,0" transform="translate(-135.4683 -203.6975)"/><path class="cls-1" d="M234.1953,489.3065a7.4937,7.4937,0,1,0,2.199,5.305,7.556,7.556,0,0,0-2.199-5.305Zm0,0" transform="translate(-135.4683 -203.6975)"/><path class="cls-1" d="M216.4523,417.2485h-16.5a7.5,7.5,0,1,0,0,15h16.5a7.5,7.5,0,0,0,0-15Zm0,0" transform="translate(-135.4683 -203.6975)"/><path class="cls-1" d="M234.1953,349.5805a7.4877,7.4877,0,1,0,2.199,5.301,7.5385,7.5385,0,0,0-2.199-5.301Zm0,0" transform="translate(-135.4683 -203.6975)"/><path class="cls-1" d="M357.32,366.19a7.5009,7.5009,0,0,0-9.188-1.113l-61.914,37.48a19.88,19.88,0,0,0-2.242,1.43,25.4881,25.4881,0,1,0,35.488,35.617,18.0171,18.0171,0,0,0,1.492-2.328l37.473-61.898a7.505,7.505,0,0,0-1.109-9.188Zm-49.286,63.465-.621,1.023a10.4941,10.4941,0,1,1-14.582-14.589l1.016-.614a10.49,10.49,0,0,1,14.187,14.18Zm11.719-19.359a25.6914,25.6914,0,0,0-6.543-6.543l16.586-10.039Zm0,0" transform="translate(-135.4683 -203.6975)"/><path class="cls-1" d="M298.7613,294.8225a130.0746,130.0746,0,0,0-129.93,129.926c0,71.64,58.285,129.926,129.93,129.926a129.926,129.926,0,0,0,0-259.852Zm0,244.852a114.926,114.926,0,1,1,114.926-114.926,115.0588,115.0588,0,0,1-114.926,114.926Zm0,0" transform="translate(-135.4683 -203.6975)"/><path class="cls-1" d="M194.6013,309.0685a7.4937,7.4937,0,1,0,2.199,5.301,7.5581,7.5581,0,0,0-2.199-5.301Zm0,0" transform="translate(-135.4683 -203.6975)"/><path class="cls-1" d="M445.3512,326.6155a7.5071,7.5071,0,0,0,10.6091,0l12.492-12.496a22.8608,22.8608,0,0,0,0-32.293l-26.773-26.774a22.8373,22.8373,0,0,0-32.293,0l-12.496,12.493a7.5019,7.5019,0,0,0,0,10.605l3.547,3.547-8.985,8.988a161.08,161.08,0,0,0-63.441-26.277v-12.707h16.5a7.5015,7.5015,0,0,0,7.5-7.5v-33.004a7.5015,7.5015,0,0,0-7.5-7.5h-91.504a7.5015,7.5015,0,0,0-7.5,7.5v33a7.4989,7.4989,0,0,0,7.5,7.5h16.5v12.727a161.94,161.94,0,0,0-60.344,24.195,7.5,7.5,0,1,0,8.258,12.523,147.319,147.319,0,0,1,81.34-24.343c81.578,0,147.949,66.371,147.949,147.949a147.5406,147.5406,0,0,1-22.215,78.011,7.5007,7.5007,0,1,0,12.739,7.922,163.1179,163.1179,0,0,0-4.414-178.6251l8.9879-8.9879Zm-132.34-64.195q-7.0725-.61-14.254-.621-7.1595-.006-14.25.621v-10.719h28.5v10.719Zm-36.004-25.723h-16.5v-18h76.504v18Zm146.609,83.344q-4.5645-5.4255-9.636-10.516-5.0745-5.08-10.516-9.637l7.578-7.582,20.156,20.153Zm-7.269-43.645-.004-.004-3.539-3.543,7.187-7.187a7.8376,7.8376,0,0,1,11.0789,0l26.7731,26.773a7.841,7.841,0,0,1,0,11.078l-7.187,7.192-3.536-3.535-.011-.012Zm0,0" transform="translate(-135.4683 -203.6975)"/></svg>