<svg id="Layer_1" data-name="Layer 1" xmlns="http://www.w3.org/2000/svg" xmlns:xlink="http://www.w3.org/1999/xlink" width="343.955" height="384" viewBox="0 0 343.955 384"><defs><style>.cls-1{fill:none;}.cls-2{clip-path:url(#clip-path);}</style><clipPath id="clip-path" transform="translate(-134.0225 -204)"><rect class="cls-1" x="134" y="204" width="344" height="384"/></clipPath></defs><g class="cls-2"><path d="M452.551,409.18c-3.324-4.399-6.949-8.797-10.797-13.18,3.848-4.383,7.473-8.781,10.797-13.18,24.683-32.679,31.691-62.093,19.722-82.82a41.5264,41.5264,0,0,0-6.683-8.648,35.5361,35.5361,0,1,0-67.133-16.45,217.6151,217.6151,0,0,0-24.535,3.543C358.457,232.898,334.004,204,306,204c-27.996,0-52.441,28.879-67.906,74.402-47.141-9.355-84.371-2.64-98.371,21.598-11.965,20.727-4.957,50.141,19.726,82.82,3.324,4.399,6.949,8.797,10.797,13.18-3.848,4.383-7.473,8.781-10.797,13.18-24.683,32.679-31.691,62.093-19.726,82.816a41.1444,41.1444,0,0,0,4.609,6.442,35.5378,35.5378,0,1,0,68.438,18.734,215.3022,215.3022,0,0,0,25.304-3.629C253.543,559.098,277.992,588,306,588c28,0,52.445-28.887,67.914-74.418a196.134,196.134,0,0,0,37.84,4.09c28.762,0,50.547-8.391,60.523-25.672,11.965-20.727,4.957-50.141-19.726-82.82ZM434,253.777a21.334,21.334,0,1,1-21.332,21.332A21.3549,21.3549,0,0,1,434,253.777Zm-61.059,83.391q-11.724-7.81-24.273-15.07-12.6615-7.3125-25.238-13.52a325.426,325.426,0,0,1,40.73-13.371,331.3988,331.3988,0,0,1,8.781,41.961ZM306,218.223c21.309,0,40.785,24.882,53.945,63.414a354.6278,354.6278,0,0,0-53.859,18.828,349.1142,349.1142,0,0,0-54.012-18.883c13.16-38.496,32.629-63.359,53.926-63.359Zm-58.172,77.023a332.243,332.243,0,0,1,40.692,13.399c-8.426,4.16-16.844,8.636-25.184,13.453q-12.534,7.236-24.277,15.07a332.5367,332.5367,0,0,1,8.769-41.922Zm-95.785,11.867c7.316-12.683,24.375-18.742,47.289-18.742a181.7219,181.7219,0,0,1,34.512,3.742,349.3662,349.3662,0,0,0-10.617,56.149,351.4261,351.4261,0,0,0-43.278,37.258q-4.875-5.631-9.148-11.274c-20.723-27.426-27.559-51.894-18.758-67.133Zm69.531,117.512A322.1831,322.1831,0,0,1,189.578,396a322.1831,322.1831,0,0,1,31.996-28.625q-.8955,13.98-.906,28.625,0,14.625.906,28.625ZM178,531.109a21.332,21.332,0,1,1,21.332-21.332A21.3517,21.3517,0,0,1,178,531.109Zm34.871-28.226a35.4947,35.4947,0,0,0-60.57-17.606c-.082-.132-.184-.254-.258-.39-8.801-15.239-1.965-39.707,18.754-67.133q4.26-5.643,9.152-11.274a351.13,351.13,0,0,0,43.278,37.258,348.7655,348.7655,0,0,0,10.625,56.172,200.5662,200.5662,0,0,1-20.981,2.973Zm26.188-48.051q11.724,7.81,24.277,15.07c8.441,4.875,16.867,9.344,25.238,13.493a326.8825,326.8825,0,0,1-40.734,13.394,331.48,331.48,0,0,1-8.781-41.957ZM306,573.777c-21.309,0-40.781-24.882-53.945-63.41a356.4774,356.4774,0,0,0,53.879-18.844,349.1926,349.1926,0,0,0,53.992,18.899c-13.16,38.496-32.629,63.355-53.926,63.355Zm58.176-77.035a331.67,331.67,0,0,1-40.719-13.375c8.445-4.164,16.871-8.648,25.211-13.465q12.5325-7.236,24.273-15.07a332.3149,332.3149,0,0,1-8.765,41.91Zm11.035-60.75c-10.609,7.539-21.859,14.781-33.656,21.59-11.75,6.785-23.66,12.91-35.52,18.332-11.797-5.379-23.726-11.48-35.59-18.332-11.797-6.809-23.047-14.051-33.656-21.59-1.242-12.902-1.902-26.297-1.902-39.992s.66-27.09,1.902-39.992c10.609-7.535,21.859-14.781,33.656-21.59,11.758-6.789,23.657-12.922,35.489-18.34,11.808,5.383,23.746,11.481,35.621,18.34,11.797,6.809,23.047,14.055,33.656,21.59,1.242,12.902,1.898,26.297,1.898,39.992s-.656,27.09-1.898,39.992ZM401.25,288.949a35.5292,35.5292,0,0,0,55.348,13.594,26.6785,26.6785,0,0,1,3.359,4.57c8.801,15.239,1.965,39.707-18.754,67.133q-4.26,5.643-9.152,11.274a351.13,351.13,0,0,0-43.278-37.258,349.0787,349.0787,0,0,0-10.621-56.168,198.4811,198.4811,0,0,1,23.098-3.145Zm-10.82,78.426A322.1238,322.1238,0,0,1,422.422,396a322.1238,322.1238,0,0,1-31.992,28.625q.89-13.98.902-28.625,0-14.625-.902-28.625Zm69.527,117.512c-10.645,18.445-41.906,22.855-81.805,15.015a349.1109,349.1109,0,0,0,10.621-56.164,351.13,351.13,0,0,0,43.278-37.258q4.881,5.631,9.152,11.274c20.719,27.426,27.555,51.894,18.754,67.133Zm0,0" transform="translate(-134.0225 -204)"/></g><path d="M306,353.332a35.5565,35.5565,0,1,0,35.555,35.555A35.5973,35.5973,0,0,0,306,353.332Zm0,56.891a21.334,21.334,0,1,1,21.332-21.332A21.3549,21.3549,0,0,1,306,410.223Zm0,0" transform="translate(-134.0225 -204)"/></svg>