<svg id="Layer_1" data-name="Layer 1" xmlns="http://www.w3.org/2000/svg" width="384" height="383.996" viewBox="0 0 384 383.996"><path d="M491.602,288.195H474.574a71.2707,71.2707,0,0,0-15.886-34.836l9.601-9.597a6.4,6.4,0,1,0-9.051-9.051l-9.613,9.609a71.57,71.57,0,0,0-34.813-15.836l-.011-17.093A6.3948,6.3948,0,0,0,408.402,205h-.007A6.398,6.398,0,0,0,402,211.398l.012,16.207a71.7649,71.7649,0,0,0-44.758,16.715l-14.242-14.25a6.4,6.4,0,1,0-9.051,9.051l14.031,14.035-18.789,18.789-9.398-9.394a6.3983,6.3983,0,0,0-9.047,9.05l9.394,9.395-18.789,18.789L287.328,285.75a6.4,6.4,0,0,0-9.051,9.051l14.035,14.035-18.789,18.793-9.398-9.399a6.4,6.4,0,0,0-9.051,9.051l9.399,9.399-18.789,18.785L231.648,341.43a6.3993,6.3993,0,0,0-9.05,9.05l14.039,14.036-18.793,18.792-9.399-9.398a6.4,6.4,0,0,0-9.05,9.051l9.398,9.398-18.789,18.789-14.035-14.039a6.4,6.4,0,1,0-9.051,9.051l14.039,14.039-18.793,18.789-9.402-9.398a6.3986,6.3986,0,1,0-9.047,9.051l9.601,9.597a71.3894,71.3894,0,0,0-16.757,44.758H120.398a6.4005,6.4005,0,0,0,0,12.801H137.43a71.3077,71.3077,0,0,0,15.882,34.836l-9.597,9.597a6.3986,6.3986,0,1,0,9.047,9.051l9.609-9.605a71.5639,71.5639,0,0,0,34.828,15.832v17.086a6.4005,6.4005,0,1,0,12.801,0V566.387a71.8173,71.8173,0,0,0,44.75-16.711l9.605,9.605a6.4,6.4,0,0,0,9.051-9.051l-9.394-9.39,18.793-18.793,14.031,14.035a6.4,6.4,0,0,0,9.051-9.051l-14.035-14.035,18.789-18.785,9.394,9.39a6.3983,6.3983,0,1,0,9.051-9.046l-9.395-9.395,18.789-18.793,14.032,14.035a6.4,6.4,0,0,0,9.05-9.051l-14.031-14.035,18.789-18.789,9.391,9.395a6.4,6.4,0,0,0,9.051-9.051l-9.395-9.391,18.797-18.796,14.031,14.039a6.3986,6.3986,0,0,0,9.047-9.051l-14.031-14.035L422,382.848l9.395,9.39a6.3968,6.3968,0,1,0,9.046-9.047l-9.39-9.394,18.789-18.793,14.035,14.035a6.3972,6.3972,0,0,0,9.047-9.047l-14.231-14.234a71.4548,71.4548,0,0,0,16.754-44.762h16.153a6.4005,6.4005,0,0,0,.004-12.801Zm-46.278,53.227-.008.008a.0484.0484,0,0,0-.011.015l-27.793,27.793c-.012.012-.024.02-.035.031l-.036.036-55.593,55.597a.6766.6766,0,0,1-.055.051c-.016.016-.031.035-.047.051l-55.558,55.562c-.024.024-.051.043-.075.067s-.043.051-.066.074l-27.731,27.73a.4049.4049,0,0,0-.035.036l-.035.035-27.75,27.75a.3928.3928,0,0,1-.058.05.3606.3606,0,0,1-.036.04,59.2977,59.2977,0,0,1-83.691-.016c-.008-.008-.012-.016-.02-.024a.0919.0919,0,0,1-.023-.019,59.2062,59.2062,0,0,1,.023-83.727L305.875,313.375l.016-.012a.0386.0386,0,0,1,.011-.015l55.664-55.664a59.2188,59.2188,0,1,1,83.758,83.738Zm0,0" transform="translate(-114 -205)"/><path d="M343.238,313.586c-13.359,13.355-23.406,32.043-13.922,41.535a6.6412,6.6412,0,0,0,4.68,1.934,6.3327,6.3327,0,0,0,4.543-10.754c-.824-1.996,2.063-11.973,13.746-23.66a6.4,6.4,0,0,0-9.047-9.055Zm0,0" transform="translate(-114 -205)"/><path d="M422.117,308.953c-3.183,3.191-19.265-.488-37.351-18.562a6.4,6.4,0,0,0-9.051,9.05c13.301,13.293,30.023,23.399,42.851,23.399A17.1442,17.1442,0,0,0,431.164,318a6.3972,6.3972,0,0,0-9.047-9.047Zm0,0" transform="translate(-114 -205)"/><path d="M282.918,383.191c-10.297,10.293-18.492,15.746-21.523,16.942a6.4,6.4,0,0,0-6.317,10.668,7.85,7.85,0,0,0,5.766,2.332c4.82,0,9.992-3.446,12.383-5.039a131.8207,131.8207,0,0,0,18.742-15.852,6.4,6.4,0,1,0-9.051-9.051Zm0,0" transform="translate(-114 -205)"/><path d="M329.312,392.469c-32.363,32.359-25.707,39.019-23.207,41.531a6.4027,6.4027,0,0,0,10.766-5.981c1.461-3.433,8.391-13.398,21.492-26.5a6.4,6.4,0,0,0-9.051-9.05Zm0,0" transform="translate(-114 -205)"/><path d="M222.594,462.07c-4.434,4.43-17.383,1.41-28.071-9.277a6.3968,6.3968,0,0,0-9.046,9.047c9.753,9.75,21.363,14.988,31.218,14.988,5.856,0,11.09-1.855,14.95-5.707a6.4,6.4,0,0,0-9.051-9.051Zm0,0" transform="translate(-114 -205)"/><path d="M199.305,512.734a6.4016,6.4016,0,0,0-9.2-8.902c-9.472,9.492.583,28.18,13.934,41.527a6.3972,6.3972,0,0,0,9.047-9.047c-11.524-11.527-14.488-21.382-13.781-23.578Zm0,0" transform="translate(-114 -205)"/></svg>