<svg id="Layer_1" data-name="Layer 1" xmlns="http://www.w3.org/2000/svg" xmlns:xlink="http://www.w3.org/1999/xlink" width="511.0028" height="510.971" viewBox="0 0 511.0028 510.971"><defs><style>.cls-1{fill:none;}.cls-2{clip-path:url(#clip-path);}</style><clipPath id="clip-path" transform="translate(-49.0012 -140.9993)"><rect class="cls-1" x="50" y="141" width="511" height="510"/></clipPath></defs><g class="cls-2"><path d="M518.992,272.426a76.9127,76.9127,0,0,1-15.351,12.031l-87.106-87.109a77.0018,77.0018,0,0,1,12.031-15.352,24.0236,24.0236,0,0,0-33.976-33.973c-38.985,38.985-39.555,86.114-32.731,128.6611-49.531-10.207-104.289-14.5511-148,29.1559-19.757,19.7621-31.117,42.9691-34.73,70.957a7.4951,7.4951,0,1,0,14.867,1.918c3.172-24.574,13.133-44.9449,30.465-62.274,40.269-40.273,91.148-34.476,140.281-23.82,1.469,7.34,2.766,13.098,4.196,19.426-48.817-11.106-96.102-18.953-131.758,17.2191C157.477,409.082,292.91,545.25,203.816,634.344a9.0308,9.0308,0,1,1-12.773-12.77c56.496-56.5,6.016-137.66,2.059-215.363a7.4962,7.4962,0,1,0-14.973.762c.82,16.117,3.559,32.2691,6.574,46.867-42.551-6.82-89.676-6.25-128.66,32.73A24.024,24.024,0,1,0,90.02,520.5431a77.055,77.055,0,0,1,15.347-12.0271l87.11,87.105a77.1018,77.1018,0,0,1-12.032,15.3521,24.0222,24.0222,0,0,0,33.973,33.972c38.984-38.9841,39.555-86.1131,32.73-128.66,56.54,11.653,107.063,11.785,148-29.156,43.711-43.711,39.36-98.477,29.153-148.008a227.5106,227.5106,0,0,0,42.887,3.18,7.4982,7.4982,0,0,0-.473-14.989c-13.434.422-28.106-.835-45.86-3.968-1.441-6.328-2.843-12.289-4.421-19.141,41.578,8.371,81.152,10.828,113.16-21.18a9.0308,9.0308,0,0,1,12.769,12.774c-14.019,14.027-29.863,23.133-48.418,27.84a7.4954,7.4954,0,1,0,3.684,14.531c21.246-5.391,39.348-15.7769,55.336-31.77a23.865,23.865,0,0,0,7.039-16.988c0-21.336-25.965-32.031-41.012-16.984ZM79.418,509.9451A9.0319,9.0319,0,1,1,66.645,497.172c24.277-24.277,52.734-31.578,81.039-31.578a233.3085,233.3085,0,0,1,40.472,4.031c1.43,6.293,2.887,12.48,4.426,19.145C151,480.395,111.426,477.938,79.418,509.9451Zm40.676-7.9061c20.34-6.25,44.668-3.859,76.066,2.789,6.652,31.4021,9.043,55.727,2.789,76.067Zm116.222-37.363c-5.714-24.68-10.773-47.699-10.55-68.5239l79.07,79.0709c-20.824.2221-43.844-4.828-68.52-10.547Zm87.75,8.578-96.332-96.332a71.5763,71.5763,0,0,1,15.047-31.563L355.625,458.207a71.4728,71.4728,0,0,1-31.559,15.047Zm42.164-25.645L253.383,334.762a71.5393,71.5393,0,0,1,31.558-15.047l96.332,96.332a71.5488,71.5488,0,0,1-15.043,31.562Zm6.465-119.316c5.719,24.68,10.77,47.699,10.551,68.523l-79.07-79.07c20.82-.223,43.844,4.832,68.519,10.547Zm11.856,148.234c-40.274,40.274-91.149,34.477-140.285,23.825-1.059-5.274-2.207-10.7039-4.196-19.43,49.446,11.25,95.754,18.785,131.707-17.168,79.172-79.172-55.168-216.547,33.418-305.129a9.0312,9.0312,0,0,1,12.774,12.77c-79.625,79.6249,55.648,216.07-33.418,305.1319Zm28.301-188.386c-6.653-31.403-9.043-55.727-2.79-76.067l78.856,78.856c-20.34,6.2541-44.664,3.863-76.066-2.789Zm0,0" transform="translate(-49.0012 -140.9993)"/></g></svg>