<svg id="Capa_1" data-name="Capa 1" xmlns="http://www.w3.org/2000/svg" viewBox="0 0 496 496"><path d="M248,392a32,32,0,1,0-32-32A32,32,0,0,0,248,392Zm0-48a16,16,0,1,1-16,16A16,16,0,0,1,248,344Z"/><path d="M472,112a23.82,23.82,0,0,0-13.07,3.89L435,102.22a107.91,107.91,0,0,0-137.46,25.85L264.91,41a24,24,0,1,0-33.85,0l-32.63,87.06A107.9,107.9,0,0,0,61,102.22L37.07,115.89A24,24,0,1,0,41.87,152H59.16A60.86,60.86,0,0,1,120,212.84v52a40,40,0,0,0,0,78.4V368a128,128,0,0,0,256,0V343.2a40,40,0,0,0,0-78.4v-52A60.84,60.84,0,0,1,436.84,152h17.29A24,24,0,1,0,472,112ZM294.34,224l-57.93-38.62-8.88,13.31,38,25.31h-39l-37.54-25,7.82-20.87L211.53,188l8.87-13.32-17.88-11.92,6.23-16.62,104.63,69.75,3.06,8.15Zm-111.18-9.64L197.62,224H179.55Zm31.36-83.65,6.23-16.62,72.63,48.42,10.39,27.7Zm12-32,6.23-16.62,40.65,27.1,10.38,27.69ZM248,16a8,8,0,1,1-8,8A8,8,0,0,1,248,16Zm0,32a23.81,23.81,0,0,0,2.4-.12l13.37,35.67L238.51,66.71l7.06-18.83Q246.77,48,248,48ZM24,144a8,8,0,1,1,8-8A8,8,0,0,1,24,144Zm77.78,4.9A76.62,76.62,0,0,0,59.16,136H48a24,24,0,0,0-1.13-7.28l22.06-12.61A91.9,91.9,0,0,1,191,144.93l.71,1.06-29.25,78H136V212.84A76.71,76.71,0,0,0,101.78,148.9ZM104,304a24,24,0,0,1,16-22.62v45.24A24,24,0,0,1,104,304ZM248,480A112.12,112.12,0,0,1,136,368V272H328V256H136V240H360v16H344v16h16v96A112.12,112.12,0,0,1,248,480ZM392,304a24,24,0,0,1-16,22.62V281.38A24,24,0,0,1,392,304Zm44.84-168A76.83,76.83,0,0,0,360,212.84V224H333.53l-29.25-78,.72-1.08A91.9,91.9,0,0,1,427.07,116.1l22.07,12.61A23.76,23.76,0,0,0,448,136ZM472,144a8,8,0,1,1,8-8A8,8,0,0,1,472,144Z"/><polygon points="304 336 320 336 320 320 336 320 336 304 320 304 320 288 304 288 304 304 288 304 288 320 304 320 304 336"/><polygon points="176 336 192 336 192 320 208 320 208 304 192 304 192 288 176 288 176 304 160 304 160 320 176 320 176 336"/><path d="M314.31,360h-2.06c-11.87,0-22.35,8-26.05,19.9a40,40,0,0,1-76.4,0C206.1,368,195.62,360,183.75,360h-2.06a26.64,26.64,0,0,0-21.51,10.74,27.27,27.27,0,0,0-4.36,24.16,96,96,0,0,0,184.36,0,27.27,27.27,0,0,0-4.36-24.16A26.64,26.64,0,0,0,314.31,360Zm10.51,30.42a80,80,0,0,1-153.64,0,11.32,11.32,0,0,1,1.8-10.08,10.78,10.78,0,0,1,8.71-4.34h2.06c4.91,0,9.13,3.39,10.76,8.65a56,56,0,0,0,107,0c1.63-5.27,5.86-8.66,10.77-8.66h2.06a10.78,10.78,0,0,1,8.71,4.34A11.33,11.33,0,0,1,324.82,390.42Z"/></svg>