<svg xmlns="http://www.w3.org/2000/svg" width="358.4234" height="258.0779" viewBox="0 0 358.4234 258.0779">
  <defs>
    <style>
      .cls-1 {
        opacity: 0.75;
      }

      .cls-2, .cls-5 {
        fill: #ff758e;
      }

      .cls-3, .cls-6 {
        fill: #3596e3;
      }

      .cls-4 {
        fill: #4c5a6b;
      }

      .cls-5, .cls-6 {
        opacity: 0.5;
      }
    </style>
  </defs>
  <g id="Layer_2" data-name="Layer 2">
    <g id="Layer_1-2" data-name="Layer 1">
      <g>
        <g>
          <g class="cls-1">
            <path class="cls-2" d="M53.4136,146.0982A38.2181,38.2181,0,0,0,69.4281,178.42c2.5664,1.7877,10.2423,6.5945,18.467,6.5945a19.4918,19.4918,0,0,0,3.4851-.3159c-.9613,6.9954.8684,14.7059,5.1521,21.7134,7.1276,11.6594,16.9475,19.8957,26.941,22.5964a53.6374,53.6374,0,0,0,13.9435,1.9052c8.1461,0,15.61-2.0532,21.25-6.0257,4.9994-3.5208,9.3545-12.3232,9.0476-18.22l.0015-.02V187.9976a2.13,2.13,0,0,0,0-.976V21.9477c0-.0441-.01-.085-.0126-.1286-.01-7.06-4.2936-14.0469-11.1206-17.9848-7.3805-4.2569-15.7055-4.21-21.3891-3.42-9.3718,1.3018-17.5209,5.3672-22.9469,11.4475-5.6469,6.3274-8.0679,14.8969-6.5331,22.491a38.6988,38.6988,0,0,0-32.1624,10.03C63.9549,53.218,59.7982,65.7354,62.4328,77.8656A24.0593,24.0593,0,0,0,73.259,93.5884a24.27,24.27,0,0,0-3.7779,9.8335,25.516,25.516,0,0,0,.71,11.3572A38.118,38.118,0,0,0,53.4136,146.0982Z"/>
          </g>
          <g class="cls-1">
            <path class="cls-3" d="M288.8674,133.8631a25.5161,25.5161,0,0,0,.71-11.3572,24.2724,24.2724,0,0,0-3.7778-9.8336A24.0594,24.0594,0,0,0,296.6257,96.95c2.6345-12.13-1.5222-24.6476-11.118-33.4831a38.6986,38.6986,0,0,0-32.1623-10.03c1.5347-7.5941-.8863-16.1636-6.5332-22.491-5.4259-6.08-13.5751-10.1457-22.9469-11.4475-5.6836-.79-14.0086-.8369-21.3891,3.42-6.8269,3.938-11.1106,10.9244-11.1206,17.9848-.0026.0436-.0126.0845-.0126.1286V206.1056a2.1293,2.1293,0,0,0,0,.9759v18.6507l.0016.02c-.307,5.8967,4.0481,14.6991,9.0475,18.22,5.64,3.9725,13.1035,6.0257,21.25,6.0257a53.6374,53.6374,0,0,0,13.9435-1.9052c9.9936-2.7007,19.8135-10.937,26.941-22.5965,4.2837-7.0074,6.1134-14.7179,5.1521-21.7133a19.4918,19.4918,0,0,0,3.4851.3159c8.2248,0,15.9007-4.8068,18.467-6.5945a39.072,39.072,0,0,0-.7629-63.641Z"/>
          </g>
          <g>
            <path class="cls-4" d="M176.9173,198.2771a2.3648,2.3648,0,0,0,0-1.0325V32.2c0-.0439-.011-.0854-.0133-.1287-.01-7.1355-4.3347-14.1933-11.2269-18.1691-7.4326-4.2874-15.8078-4.2407-21.525-3.4464-9.4215,1.3087-17.6173,5.3988-23.0767,11.5164A26.839,26.839,0,0,0,114.43,44.3485a38.94,38.94,0,0,0-32.0355,10.13c-9.6521,8.8874-13.8323,21.48-11.1819,33.6858A24.33,24.33,0,0,0,81.95,103.9177a24.5426,24.5426,0,0,0-3.6915,9.7231,25.7919,25.7919,0,0,0,.6667,11.307,39.2865,39.2865,0,0,0-.631,63.9c2.5823,1.7991,10.3023,6.6333,18.5926,6.6327a19.8121,19.8121,0,0,0,3.2451-.2625c-.8785,6.966.9569,14.6069,5.2068,21.5585,7.1552,11.7056,17.0208,19.9758,27.0675,22.6913a53.8384,53.8384,0,0,0,13.9967,1.9116c8.1911,0,15.6993-2.0662,21.375-6.0633,5.0453-3.5543,9.44-12.4347,9.1372-18.3931l.0023-.0219Zm-11.8608,33.1752c-7.6738,5.4052-19.4186,6.6961-31.4178,3.4533-8.8913-2.4029-17.7371-9.9088-24.2689-20.5935-3.7446-6.1256-5.3532-12.7865-4.5307-18.7564.909-6.5963,5.0152-12.3689,10.462-14.7072.0213-.0093.0386-.0231.06-.0329a20.72,20.72,0,0,0,4.46,2.6158,21.3216,21.3216,0,0,0,8.3319,1.66,21.87,21.87,0,0,0,12.2166-3.6627,2.3627,2.3627,0,1,0-2.655-3.9089,16.8248,16.8248,0,0,1-20.8121-26.33,2.3626,2.3626,0,1,0-3.19-3.4862,22.0455,22.0455,0,0,0-6.6944,19.53,21.6974,21.6974,0,0,0,4.7378,10.1079,23.3055,23.3055,0,0,0-10.4124,12.7115c-6.5224,2.1417-14.743-1.1772-20.35-5.0827a34.5938,34.5938,0,0,1-.18-55.59,19.169,19.169,0,0,0,10.6789,8.968,16.6974,16.6974,0,0,0,5.0886.7943,15.6374,15.6374,0,0,0,9.9752-3.4879,2.3627,2.3627,0,0,0-3.015-3.6385,11.474,11.474,0,0,1-10.6079,1.8319,14.78,14.78,0,0,1-8.4582-7.6056,20.089,20.089,0,0,1-1.551-11.86,18.1009,18.1009,0,0,1,6.2219-11.4421c3.4746-2.7213,8.1917-3.4284,11.7379-1.7609a2.3625,2.3625,0,0,0,2.0119-4.2753c-5.122-2.41-11.8187-1.4783-16.6638,2.3165-.4014.3149-.7793.661-1.1559,1.0094A19.3427,19.3427,0,0,1,75.83,87.161c-2.3256-10.7066,1.2344-21.352,9.7652-29.2068a34.0475,34.0475,0,0,1,29.4082-8.6971,15.0839,15.0839,0,0,0-.0513,14.9132,2.3628,2.3628,0,0,0,4.0734-2.3955,9.9812,9.9812,0,0,1,14.01-13.4509,2.3624,2.3624,0,1,0,2.56-3.9713,15.0931,15.0931,0,0,0-16.2768.2486c-1.6623-6.4261.3426-13.9482,5.2824-19.4826,4.7135-5.2823,11.8884-8.8279,20.2012-9.9827,4.9842-.6922,12.242-.7585,18.5136,2.8592,5.5639,3.2093,9.1256,9.1186,8.8619,14.7038a2.3992,2.3992,0,0,0,.0145.2648V65.0252a24.7585,24.7585,0,0,1-14.6732-1.1577,17.8026,17.8026,0,0,1-10.1956-11.1617c-1.3658-5,.2642-10.6252,3.9638-13.68a2.3626,2.3626,0,1,0-3.0086-3.6436,18.1261,18.1261,0,0,0-5.5136,18.5689,22.3176,22.3176,0,0,0,12.8938,14.26,27.7133,27.7133,0,0,0,10.9061,2.1428,32.4165,32.4165,0,0,0,5.6273-.5088v38.8765c-2.45,5.5216-9.3321,9.711-15.2685,9.208a15.0965,15.0965,0,0,1-12.839-10.7845,21.6732,21.6732,0,0,0,5.3141-8.5557,22.2526,22.2526,0,0,0-5.77-22.6838,2.3627,2.3627,0,0,0-3.2451,3.4349,17.1437,17.1437,0,1,1-26.2323,21.6732,2.3624,2.3624,0,1,0-3.9845,2.5391,22.316,22.316,0,0,0,18.581,10.1084,20.7834,20.7834,0,0,0,2.6072-.1638,21.6,21.6,0,0,0,8.7962-3.1989,19.7617,19.7617,0,0,0,16.3742,12.34c.4476.0375.8987.0565,1.3509.0565a21.512,21.512,0,0,0,14.3156-6.0569V191.95a20.7789,20.7789,0,0,0-33.3991,19.6066,2.3626,2.3626,0,0,0,4.6675-.7361,16.13,16.13,0,0,1,28.7316-12.3366v18.4173c0,.0271.0069.0519.0081.0784s-.0046.0531-.0029.08C172.462,221,169.153,228.5671,165.0565,231.4523Z"/>
            <path class="cls-4" d="M148.2935,161.9986a17.95,17.95,0,0,0,14.3843-28.8746,2.3631,2.3631,0,0,0-3.75,2.8759,13.2293,13.2293,0,1,1-23.0617,12.193,2.3625,2.3625,0,0,0-4.4874,1.48,18.4312,18.4312,0,0,0,15.3809,12.2553Q147.525,161.9994,148.2935,161.9986Z"/>
            <path class="cls-4" d="M280.4259,124.9478a25.79,25.79,0,0,0,.6667-11.307,24.5482,24.5482,0,0,0-3.6915-9.7231,24.3266,24.3266,0,0,0,10.7372-15.7536c2.65-12.2057-1.5292-24.7984-11.1819-33.6858a38.9389,38.9389,0,0,0-32.0344-10.13,26.8407,26.8407,0,0,0-6.6464-22.3763c-5.4594-6.1176-13.6552-10.2077-23.0767-11.5164-5.716-.7943-14.0924-.841-21.525,3.4464-6.8922,3.9758-11.2171,11.0336-11.2269,18.1691-.0023.0433-.0132.0848-.0132.1287V197.2434a2.3514,2.3514,0,0,0,0,1.0342v18.6232l.0023.0219c-.3028,5.9584,4.0918,14.8394,9.1371,18.3931,5.6763,3.9977,13.1833,6.0638,21.375,6.0633a53.8674,53.8674,0,0,0,13.9967-1.9116c10.0467-2.7155,19.9123-10.9857,27.067-22.6913,4.25-6.9522,6.0858-14.593,5.2073-21.5585a19.8121,19.8121,0,0,0,3.2451.2625c8.29,0,16.0108-4.8336,18.5926-6.6327a39.2865,39.2865,0,0,0-.631-63.9Zm-2.07,60.0225c-5.6071,3.9061-13.8294,7.2238-20.3495,5.0827a23.3053,23.3053,0,0,0-10.413-12.7121,21.6884,21.6884,0,0,0,4.7384-10.1067,22.0461,22.0461,0,0,0-6.6944-19.53,2.3626,2.3626,0,1,0-3.19,3.4862,16.8248,16.8248,0,0,1-20.8122,26.33,2.3627,2.3627,0,1,0-2.655,3.9089,21.8733,21.8733,0,0,0,12.2167,3.6627,21.3344,21.3344,0,0,0,8.3318-1.66,20.75,20.75,0,0,0,4.46-2.6164c.0207.01.0386.0242.06.0335,5.4467,2.3383,9.5529,8.1109,10.462,14.7072.8224,5.97-.7862,12.6308-4.5314,18.7564-6.5311,10.6847-15.3769,18.1906-24.2683,20.5935-11.9992,3.2428-23.744,1.9514-31.4178-3.4533-4.0964-2.8852-7.4055-10.4516-7.1408-14.3929.0017-.0271-.0034-.053-.0028-.08s.008-.0513.008-.0784V198.483A16.1306,16.1306,0,0,1,215.8905,210.82a2.3626,2.3626,0,1,0,4.6675.7361,20.7785,20.7785,0,0,0-33.3991-19.606V116.6379a21.5091,21.5091,0,0,0,14.3156,6.0569q.6784,0,1.3509-.0565a19.7617,19.7617,0,0,0,16.3742-12.34,21.5935,21.5935,0,0,0,8.7962,3.1989,20.7763,20.7763,0,0,0,2.6072.1638,22.3175,22.3175,0,0,0,18.581-10.1084A2.3624,2.3624,0,1,0,245.2,101.014a17.1438,17.1438,0,1,1-26.2323-21.6732,2.3627,2.3627,0,1,0-3.2451-3.4349,22.2519,22.2519,0,0,0-5.77,22.6838,21.6722,21.6722,0,0,0,5.3135,8.5551A15.0955,15.0955,0,0,1,202.4274,117.93c-5.9422.503-12.8188-3.6864-15.2685-9.2075V69.8454a32.3535,32.3535,0,0,0,5.6273.5088,27.7212,27.7212,0,0,0,10.9056-2.1428,22.3157,22.3157,0,0,0,12.8937-14.26,18.1234,18.1234,0,0,0-5.513-18.5689,2.3626,2.3626,0,1,0-3.0086,3.6436c3.7,3.0548,5.33,8.68,3.9638,13.68a17.8025,17.8025,0,0,1-10.1955,11.1617,24.76,24.76,0,0,1-14.6733,1.1577V32.9637a2.375,2.375,0,0,0,.0145-.2648c-.2636-5.5852,3.2981-11.4945,8.8613-14.7038,6.2716-3.6177,13.5289-3.5514,18.5142-2.8592,8.3128,1.1548,15.4877,4.7,20.2013,9.9827,4.94,5.535,6.9447,13.0565,5.2823,19.4826a15.0952,15.0952,0,0,0-16.2773-.2486,2.3627,2.3627,0,0,0,2.56,3.9719,9.981,9.981,0,0,1,14.01,13.45,2.3628,2.3628,0,1,0,4.0734,2.3955,15.0807,15.0807,0,0,0-.0519-14.9132,34.0464,34.0464,0,0,1,29.4088,8.6971c8.5308,7.8548,12.09,18.5,9.7652,29.2068a19.34,19.34,0,0,1-9.2473,13.0692c-.3766-.3479-.7544-.6945-1.1565-1.0094-4.8451-3.7948-11.5412-4.7257-16.6632-2.3165a2.3625,2.3625,0,0,0,2.0119,4.2753c3.5456-1.6675,8.2633-.961,11.7379,1.7609a18.1042,18.1042,0,0,1,6.222,11.4421,20.09,20.09,0,0,1-1.5511,11.86,14.782,14.782,0,0,1-8.4582,7.6056,11.4766,11.4766,0,0,1-10.6085-1.8319,2.3625,2.3625,0,1,0-3.0144,3.6385,15.6322,15.6322,0,0,0,9.9752,3.4879,16.7,16.7,0,0,0,5.0886-.7943,19.169,19.169,0,0,0,10.6789-8.968,34.5947,34.5947,0,0,1-.18,55.59Z"/>
            <path class="cls-4" d="M226.4685,146.6892a2.3606,2.3606,0,0,0-2.9832,1.5037A13.23,13.23,0,1,1,200.423,136a2.3628,2.3628,0,0,0-3.75-2.8759,17.95,17.95,0,0,0,14.3843,28.8746q.7683,0,1.5348-.0709a18.4311,18.4311,0,0,0,15.38-12.2553A2.3622,2.3622,0,0,0,226.4685,146.6892Z"/>
          </g>
        </g>
        <polygon class="cls-5" points="358.423 162.195 333.956 163.262 302.588 205.407 316.187 210.114 281.77 258.078 345.767 204.385 326.119 199.359 358.423 162.195"/>
        <polygon class="cls-6" points="0 162.195 24.468 163.262 55.835 205.407 42.237 210.114 76.653 258.078 12.657 204.385 32.304 199.359 0 162.195"/>
      </g>
    </g>
  </g>
</svg>
