<svg id="Layer_1" data-name="Layer 1" xmlns="http://www.w3.org/2000/svg" xmlns:xlink="http://www.w3.org/1999/xlink" width="352" height="479.9998" viewBox="0 0 352 479.9998"><defs><style>.cls-1{fill:none;}.cls-2{clip-path:url(#clip-path);}</style><clipPath id="clip-path" transform="translate(-129 -156.0002)"><rect class="cls-1" x="129" y="156" width="352" height="480"/></clipPath></defs><g class="cls-2"><path d="M137,636H441a8,8,0,0,0,8-8V519.062c7.746-9.042,32-41.902,32-99.062s-24.254-90.02-32-99.059V292a8,8,0,0,0-8-8H380.312l50.344-50.344a7.9965,7.9965,0,0,0,0-11.312L428.312,220l18.344-18.344a7.9965,7.9965,0,0,0,0-11.312l-32-32a7.9965,7.9965,0,0,0-11.312,0L385,176.688l-2.344-2.344a7.9965,7.9965,0,0,0-11.312,0l-128,128a7.9965,7.9965,0,0,0,0,11.312L245.688,316l-26.344,26.344a7.9965,7.9965,0,0,0,0,11.312l32,32a7.9965,7.9965,0,0,0,11.312,0L289,359.312l2.344,2.344a7.9965,7.9965,0,0,0,11.312,0l20.321-20.32a39.594,39.594,0,0,0,53.347-8.762C386.617,337.969,425,361.98,425,420c0,52.605-41.625,82.367-50.305,88H337V452a8,8,0,0,0-8-8H185a8,8,0,0,0-8,8v32a8,8,0,0,0,8,8H289v16H265a8,8,0,0,0-8,8v56H169a40.0493,40.0493,0,0,0-40,40v16a8,8,0,0,0,8,8ZM409,175.312,429.688,196,417,208.688,396.312,188ZM257,368.688,236.312,348,257,327.312,277.688,348ZM345,332a24,24,0,1,1,24-24,24.0011,24.0011,0,0,1-24,24Zm22.023-57.336a39.9364,39.9364,0,0,0-55.359,55.359L297,344.688,260.312,308,377,191.312,413.688,228ZM384.191,316a39.9474,39.9474,0,0,0,0-16H433v16ZM441,420a112.7166,112.7166,0,0,0-37.766-88h34.145A139.2856,139.2856,0,0,1,465,420a139.3061,139.3061,0,0,1-27.617,88H400.664A118.8934,118.8934,0,0,0,441,420ZM193,476V460H321v16Zm128,16v56a8,8,0,0,1-16,0V492Zm-48,32h16v24a24,24,0,0,0,48,0V524h96v48H273ZM145,612a24.0267,24.0267,0,0,1,24-24H433v32H145Zm0,0" transform="translate(-129 -156.0002)"/></g><rect x="272" y="383.9998" width="16" height="16"/><rect x="240" y="383.9998" width="16" height="16"/></svg>