<svg id="Layer_1" data-name="Layer 1" xmlns="http://www.w3.org/2000/svg" width="384" height="384" viewBox="0 0 384 384"><path d="M347.289,402.195a6.195,6.195,0,0,0,0-12.39H344.73A38.6614,38.6614,0,0,0,342.633,382l2.222-1.281a6.1937,6.1937,0,1,0-6.195-10.727l-2.23,1.289a39.5268,39.5268,0,0,0-5.711-5.711l1.289-2.23a6.1937,6.1937,0,0,0-10.727-6.195L320,359.367a38.934,38.934,0,0,0-7.805-2.101v-2.555a6.195,6.195,0,0,0-12.39,0v2.559A38.6614,38.6614,0,0,0,292,359.367l-1.281-2.222a6.1937,6.1937,0,1,0-10.727,6.195l1.289,2.23a39.5268,39.5268,0,0,0-5.711,5.711l-2.23-1.289a6.1937,6.1937,0,0,0-6.195,10.727L269.367,382a38.6614,38.6614,0,0,0-2.097,7.805h-2.559a6.195,6.195,0,0,0,0,12.39h2.559A38.6614,38.6614,0,0,0,269.367,410l-2.222,1.281a6.1937,6.1937,0,1,0,6.195,10.727l2.23-1.289a39.5268,39.5268,0,0,0,5.711,5.711l-1.289,2.23a6.1939,6.1939,0,0,0,2.266,8.461,6.114,6.114,0,0,0,3.09.832,6.1921,6.1921,0,0,0,5.371-3.098L292,432.633a38.934,38.934,0,0,0,7.805,2.101v2.559a6.193,6.193,0,0,0,12.386,0v-2.559a38.916,38.916,0,0,0,7.805-2.101l1.285,2.222a6.181,6.181,0,0,0,5.367,3.098,6.114,6.114,0,0,0,3.09-.832,6.1907,6.1907,0,0,0,2.27-8.461l-1.289-2.23a40.0094,40.0094,0,0,0,5.707-5.711l2.234,1.289a6.1929,6.1929,0,0,0,6.192-10.727l-2.223-1.285a38.7906,38.7906,0,0,0,2.101-7.805h2.559ZM306,422.84A26.84,26.84,0,1,1,332.84,396,26.8712,26.8712,0,0,1,306,422.84Zm0,0" transform="translate(-114 -204)"/><path d="M441.766,260.234a191.99,191.99,0,0,0-247.961-20.035,30.9736,30.9736,0,1,0,7.765,9.672A177.848,177.848,0,0,1,306,216.387c99.039,0,179.613,80.574,179.613,179.613S405.039,575.613,306,575.613,126.387,495.039,126.387,396a179.58,179.58,0,0,1,23.586-89.027,6.1939,6.1939,0,0,0-10.754-6.149,192.0153,192.0153,0,1,0,302.547-40.59ZM187.172,277.172a18.5845,18.5845,0,1,1,0-26.277,18.4707,18.4707,0,0,1,0,26.277Zm0,0" transform="translate(-114 -204)"/><path d="M306,253.547A142.4847,142.4847,0,0,0,166.035,369.422a26.8476,26.8476,0,1,0,12.383,1.187C190.344,310.539,244.184,265.938,306,265.938A130.062,130.062,0,1,1,183.129,438.746a6.1934,6.1934,0,0,0-11.699,4.07A142.5836,142.5836,0,0,0,306,538.453c78.547,0,142.453-63.906,142.453-142.453S384.547,253.547,306,253.547ZM184.191,396a14.451,14.451,0,1,1-14.449-14.453A14.4665,14.4665,0,0,1,184.191,396Zm0,0" transform="translate(-114 -204)"/><path d="M312.195,234.969A6.195,6.195,0,1,1,306,228.773a6.1934,6.1934,0,0,1,6.195,6.196Zm0,0" transform="translate(-114 -204)"/><path d="M473.227,396a6.1935,6.1935,0,1,1-6.196-6.195A6.1951,6.1951,0,0,1,473.227,396Zm0,0" transform="translate(-114 -204)"/><path d="M426.062,509.871a6.193,6.193,0,1,1-6.191-6.195,6.1925,6.1925,0,0,1,6.191,6.195Zm0,0" transform="translate(-114 -204)"/><path d="M312.195,557.031A6.195,6.195,0,1,1,306,550.84a6.1951,6.1951,0,0,1,6.195,6.191Zm0,0" transform="translate(-114 -204)"/><path d="M461.094,247.098a6.1935,6.1935,0,1,1-6.192-6.192,6.1942,6.1942,0,0,1,6.192,6.192Zm0,0" transform="translate(-114 -204)"/><path d="M461.094,544.902a6.1935,6.1935,0,1,1-6.192-6.195,6.1942,6.1942,0,0,1,6.192,6.195Zm0,0" transform="translate(-114 -204)"/><path d="M163.293,544.902a6.1935,6.1935,0,1,1-6.195-6.195,6.1942,6.1942,0,0,1,6.195,6.195Zm0,0" transform="translate(-114 -204)"/><path d="M423.676,396a6.1935,6.1935,0,1,1-6.192-6.195A6.1917,6.1917,0,0,1,423.676,396Zm0,0" transform="translate(-114 -204)"/><path d="M233.363,474.832a6.193,6.193,0,1,1-6.195-6.195,6.1908,6.1908,0,0,1,6.195,6.195Zm0,0" transform="translate(-114 -204)"/><path d="M233.363,317.168a6.193,6.193,0,1,1-6.195-6.191,6.1942,6.1942,0,0,1,6.195,6.191Zm0,0" transform="translate(-114 -204)"/><path d="M312.195,284.516A6.195,6.195,0,1,1,306,278.324a6.1942,6.1942,0,0,1,6.195,6.192Zm0,0" transform="translate(-114 -204)"/><path d="M426.062,282.129a6.193,6.193,0,1,1-6.191-6.191,6.1934,6.1934,0,0,1,6.191,6.191Zm0,0" transform="translate(-114 -204)"/><path d="M306,303.098A93.0064,93.0064,0,0,0,213.098,396a91.914,91.914,0,0,0,20.207,57.848,93.4751,93.4751,0,0,0,45.957,31.113,26.8339,26.8339,0,1,0,1.886-12.375,80.5228,80.5228,0,1,1,65.543-7.113,6.1945,6.1945,0,0,0,6.274,10.683A92.9017,92.9017,0,0,0,306,303.098Zm0,165.16a14.451,14.451,0,1,1-14.453,14.453A14.47,14.47,0,0,1,306,468.258Zm0,0" transform="translate(-114 -204)"/></svg>