<svg id="Layer_1" data-name="Layer 1" xmlns="http://www.w3.org/2000/svg" xmlns:xlink="http://www.w3.org/1999/xlink" width="383.9599" height="384" viewBox="0 0 383.9599 384"><defs><style>.cls-1{fill:none;}.cls-2{clip-path:url(#clip-path);}</style><clipPath id="clip-path" transform="translate(-114.02 -204)"><rect class="cls-1" x="114" y="204" width="384" height="384"/></clipPath></defs><path d="M213.098,396a6.1935,6.1935,0,1,1-6.196-6.195A6.1951,6.1951,0,0,1,213.098,396Zm0,0" transform="translate(-114.02 -204)"/><path d="M237.871,371.227a6.1935,6.1935,0,1,1-6.195-6.196,6.1915,6.1915,0,0,1,6.195,6.196Zm0,0" transform="translate(-114.02 -204)"/><g class="cls-2"><path d="M442.723,254.84a6.19,6.19,0,0,0-7.571,4.402c-1.824,6.891-7.472,22.406-24.808,48.906-21.09,32.227-52.149,69.422-87.461,104.735s-72.508,66.371-104.735,87.461c-26.496,17.336-42.011,22.984-48.906,24.808a6.1925,6.1925,0,1,0,3.168,11.973c7.617-2.016,24.563-8.125,52.52-26.418,32.918-21.539,70.816-53.172,106.711-89.066s67.527-73.793,89.066-106.711c18.293-27.957,24.406-44.907,26.418-52.52a6.1877,6.1877,0,0,0-4.402-7.57Zm0,0" transform="translate(-114.02 -204)"/><path d="M484.152,217.848C477.836,211.531,466.484,204,448.289,204c-23.242,0-54.527,13.09-92.984,38.906-8.504,5.711-17.332,12.028-26.266,18.793A137.0287,137.0287,0,0,0,306,259.742c-75.133,0-136.258,61.125-136.258,136.258a136.6732,136.6732,0,0,0,1.961,23.047,507.0283,507.0283,0,0,0-30.141,44.043c-12.32,20.461-20.597,38.621-24.597,53.988-7.891,30.285,1.562,47.754,10.883,57.074C134.164,580.469,145.516,588,163.711,588c23.242,0,54.531-13.09,92.988-38.906q12.885-8.649,26.266-18.789A137.5929,137.5929,0,0,0,306,532.258c75.133,0,136.258-61.125,136.258-136.258a137.2919,137.2919,0,0,0-1.957-23.047,506.165,506.165,0,0,0,30.133-44.043c12.324-20.457,20.601-38.621,24.601-53.988,7.891-30.285-1.562-47.754-10.883-57.074ZM306,272.129a123.5537,123.5537,0,0,1,83.391,32.289,6.1935,6.1935,0,1,0,8.343-9.156,136.4842,136.4842,0,0,0-25.964-18.606c48.46-33.328,78.039-40.597,86.105-32.531,6.109,6.109,4.254,26.555-19.27,65.613-21.937,36.418-56.812,79.27-98.207,120.66-41.39,41.395-84.242,76.27-120.66,98.207-39.058,23.524-59.504,25.379-65.613,19.27-8.066-8.066-.797-37.645,32.535-86.105a136.4132,136.4132,0,0,0,18.602,25.964,6.1935,6.1935,0,0,0,9.156-8.343A123.8593,123.8593,0,0,1,306,272.129Zm0,247.742q-4.593,0-9.191-.344a853.2274,853.2274,0,0,0,69.867-62.851,854.9438,854.9438,0,0,0,62.847-69.883c.231,3.066.348,6.141.348,9.207A124.0135,124.0135,0,0,1,306,519.871Zm177.051-248.07c-3.703,14.215-11.516,31.281-23.227,50.719-22.941,38.089-59.133,82.625-101.906,125.398-36.438,36.437-73.828,67.867-108.125,90.891-36.379,24.421-65.34,36.804-86.082,36.804-13.953,0-22.441-5.558-27.106-10.218-7.031-7.032-14.066-20.583-7.656-45.2,3.703-14.211,11.516-31.273,23.227-50.715,6.625-10.996,14.414-22.613,23.211-34.644a135.0031,135.0031,0,0,0,5.074,14.16c-23.016,32.52-55.844,86.887-35.094,107.637,4.613,4.613,10.914,6.535,18.219,6.535,18.191,0,42.598-11.938,62.543-23.953,37.254-22.442,80.949-57.977,123.031-100.059s77.617-85.773,100.055-123.027c16.84-27.953,33.527-64.656,17.422-80.766C445.887,214.621,391.52,247.441,359,270.461a135.4889,135.4889,0,0,0-14.168-5.078c5.898-4.309,11.711-8.391,17.375-12.192,36.379-24.421,65.34-36.804,86.082-36.804,13.953,0,22.441,5.558,27.102,10.218,7.035,7.036,14.07,20.583,7.66,45.196Zm0,0" transform="translate(-114.02 -204)"/></g></svg>