<svg id="Layer_1" data-name="Layer 1" xmlns="http://www.w3.org/2000/svg" width="260.672" height="384" viewBox="0 0 260.672 384"><path d="M399.27,394.449v-4.441a43.5017,43.5017,0,0,0,0-85.836V299.73a21.3412,21.3412,0,0,0-21.317-21.316H311.316V263.773a30.1975,30.1975,0,1,0-12.183,0v14.641H232.496A21.34,21.34,0,0,0,211.18,299.73v4.473a43.51,43.51,0,0,0,0,85.774v4.472a21.3406,21.3406,0,0,0,21.316,21.317h66.637v15.296H265.078a33.2742,33.2742,0,0,0-33.234,33.235v39.141H214.313a21.3406,21.3406,0,0,0-21.317,21.316v57.152A6.0942,6.0942,0,0,0,199.09,588H327.297a6.094,6.094,0,0,0,0-12.188H244.031V464.297a21.0707,21.0707,0,0,1,21.047-21.047h80.293a21.07,21.07,0,0,1,21.047,21.047V575.812H347.199a6.094,6.094,0,0,0,0,12.188h64.16a6.0916,6.0916,0,0,0,6.094-6.094V524.754a21.34,21.34,0,0,0-21.316-21.316H378.602V464.297a33.2682,33.2682,0,0,0-33.231-33.231H311.316v-15.3h66.637a21.3414,21.3414,0,0,0,21.317-21.317Zm0-77.879a31.3418,31.3418,0,0,1,0,61.043ZM211.18,377.559a31.34,31.34,0,0,1,0-60.934Zm20.664,198.253H205.18V524.754a9.1422,9.1422,0,0,1,9.129-9.129h17.535Zm146.758-60.187h17.535a9.14,9.14,0,0,1,9.129,9.129v51.058H378.602Zm-91.387-281.43a18.01,18.01,0,1,1,18.008,18.012,18.0277,18.0277,0,0,1-18.008-18.012ZM232.492,403.578a9.1377,9.1377,0,0,1-9.129-9.129v-8.195a6.0722,6.0722,0,0,0,.266-1.766V309.691a6.0706,6.0706,0,0,0-.266-1.765V299.73a9.1394,9.1394,0,0,1,9.129-9.128H377.953a9.1394,9.1394,0,0,1,9.129,9.128v9.293a6.4553,6.4553,0,0,0-.039.668v74.797a6.5,6.5,0,0,0,.039.672v9.289a9.1377,9.1377,0,0,1-9.129,9.129Zm0,0" transform="translate(-175 -204)"/><path d="M288.367,331.445a20.8925,20.8925,0,1,0-20.894,20.895,20.92,20.92,0,0,0,20.894-20.895Zm-20.894,8.707a8.707,8.707,0,1,1,8.707-8.707,8.7169,8.7169,0,0,1-8.707,8.707Zm0,0" transform="translate(-175 -204)"/><path d="M342.977,310.551a20.8945,20.8945,0,1,0,20.89,20.894,20.92,20.92,0,0,0-20.89-20.894Zm0,29.601a8.707,8.707,0,1,1,8.707-8.707,8.7169,8.7169,0,0,1-8.707,8.707Zm0,0" transform="translate(-175 -204)"/><path d="M326.934,362.992a6.0938,6.0938,0,0,0-7.395,4.426,16.5365,16.5365,0,0,1-32.082-.07,6.0928,6.0928,0,1,0-11.832,2.914,28.7217,28.7217,0,0,0,55.731.125,6.0952,6.0952,0,0,0-4.422-7.395Zm0,0" transform="translate(-175 -204)"/><path d="M304.801,467.031a37.807,37.807,0,1,0,37.805,37.809,37.8518,37.8518,0,0,0-37.805-37.809Zm0,63.43a25.621,25.621,0,1,1,25.621-25.621,25.648,25.648,0,0,1-25.621,25.621Zm0,0" transform="translate(-175 -204)"/></svg>