<svg id="Layer_1" data-name="Layer 1" xmlns="http://www.w3.org/2000/svg" xmlns:xlink="http://www.w3.org/1999/xlink" width="384" height="384.0001" viewBox="0 0 384 384.0001"><defs><style>.cls-1{fill:none;}.cls-2{clip-path:url(#clip-path);}</style><clipPath id="clip-path" transform="translate(-114 -204)"><rect class="cls-1" x="114" y="204" width="384" height="384"/></clipPath></defs><g class="cls-2"><path d="M238.734,472.801a185.5442,185.5442,0,0,0-31.422-65.215,13.2421,13.2421,0,0,0-20.222,0c-12.867,16.316-34.692,54.207-34.692,90.812a245.051,245.051,0,0,0,14.145,81.282A12.8,12.8,0,0,0,178.574,588h37.25a12.7962,12.7962,0,0,0,12.031-8.383,241.5678,241.5678,0,0,0,11.907-49.219,61.109,61.109,0,0,1,33.664-13.566c1.148,3.328-.449-4.098,12.476,60.609a12.8012,12.8012,0,0,0,12.801,10.301h15.106a12.8,12.8,0,0,0,12.8-10.301c12.797-65.281,11.329-57.601,12.414-60.609a61.13,61.13,0,0,1,33.215,13.566,243.263,243.263,0,0,0,11.907,49.028A12.801,12.801,0,0,0,396.176,588h37.25a12.8,12.8,0,0,0,12.031-8.383,244.2858,244.2858,0,0,0,14.145-81.219c0-36.605-21.825-74.496-34.692-91.07a13.2494,13.2494,0,0,0-20.222,0,185.5572,185.5572,0,0,0-31.422,65.473,79.7883,79.7883,0,0,1-16.067-33.024,586.8929,586.8929,0,0,0,6.403-82.175,263.9514,263.9514,0,0,0-47.364-148.481,13.1743,13.1743,0,0,0-20.476,0,263.9514,263.9514,0,0,0-47.364,148.481,574.869,574.869,0,0,0,6.403,82.109,79.4855,79.4855,0,0,1-16.067,33.09Zm-41.535-57.602c11.074,14.274,32,49.985,32,83.199a228.4989,228.4989,0,0,1-4.543,44.801H169.742a228.5753,228.5753,0,0,1-4.543-44.801c0-33.214,20.93-68.925,32-83.199Zm-18.625,160A200.7638,200.7638,0,0,1,172.625,556h49.152a194.571,194.571,0,0,1-5.953,19.199Zm83.84-240.383A53.0107,53.0107,0,0,1,306,314.398a53.0107,53.0107,0,0,1,43.586,20.418,339.6266,339.6266,0,0,1-.32,60.352A52.746,52.746,0,0,1,306,415.199a52.746,52.746,0,0,1-43.266-20.031,339.6266,339.6266,0,0,1-.32-60.352Zm2.883-20.543a255.5348,255.5348,0,0,1,9.406-35.714,207.3122,207.3122,0,0,0,62.594,0,255.5348,255.5348,0,0,1,9.406,35.714,71.3588,71.3588,0,0,0-81.406,0Zm82.047,100.543a516.5178,516.5178,0,0,1-20.352,96.383H285.008a516.5178,516.5178,0,0,1-20.352-96.383,71.1727,71.1727,0,0,0,82.688,0ZM319.953,543.199H292.047L288.207,524h35.586Zm-21.504,32L294.609,556h22.782l-3.84,19.199Zm135.039,0H396.176c-1.473-4.031-3.711-10.625-5.953-19.199h49.152c-2.238,8.574-4.414,15.168-5.887,19.199Zm-18.687-160c11.07,14.274,32,49.985,32,83.199a228.5753,228.5753,0,0,1-4.543,44.801H387.344a228.4989,228.4989,0,0,1-4.543-44.801c0-33.214,20.926-68.925,32-83.199ZM370.574,488.48a144.36,144.36,0,0,0,0,25.598,70.37,70.37,0,0,0-28.094-9.277c2.817-9.602,6.399-23.36,10.047-40.387a90.9377,90.9377,0,0,0,18.047,24.066ZM306,216.801a232.6852,232.6852,0,0,1,26.688,49.535,201.493,201.493,0,0,1-53.376,0A232.6852,232.6852,0,0,1,306,216.801Zm-36.48,288a70.3328,70.3328,0,0,0-28.094,9.664,150.7457,150.7457,0,0,0,0-25.602,90.9125,90.9125,0,0,0,18.047-24.32c3.519,16.641,7.168,30.402,10.047,40.258Zm0,0" transform="translate(-114 -204)"/></g><path d="M274,364a6.3987,6.3987,0,0,0,6.398-6.398,18.31,18.31,0,0,1,19.204-19.204,6.398,6.398,0,0,0,0-12.796,30.8426,30.8426,0,0,0-32,32A6.3987,6.3987,0,0,0,274,364Zm0,0" transform="translate(-114 -204)"/><path d="M158.801,338.398a6.4005,6.4005,0,1,0,12.801,0c.832-27.132,10.941-57.597,38.398-57.597A6.4005,6.4005,0,0,0,210,268c-37.824,0-38.398-55.23-38.398-57.602a6.4005,6.4005,0,0,0-12.801,0C157.969,237.535,147.855,268,120.398,268a6.4005,6.4005,0,0,0,0,12.801c37.825,0,38.403,55.23,38.403,57.597Zm6.398-92.605a55.7947,55.7947,0,0,0,21.504,28.605,55.823,55.823,0,0,0-21.504,28.61,55.8177,55.8177,0,0,0-21.504-28.61,55.7894,55.7894,0,0,0,21.504-28.605Zm0,0" transform="translate(-114 -204)"/><path d="M491.602,332c-37.825,0-38.403-55.23-38.403-57.602a6.4005,6.4005,0,0,0-12.801,0C439.566,301.535,429.457,332,402,332a6.4005,6.4005,0,0,0,0,12.801c37.824,0,38.398,55.23,38.398,57.597a6.4005,6.4005,0,1,0,12.801,0c.832-27.132,10.946-57.597,38.403-57.597a6.4005,6.4005,0,0,0,0-12.801Zm-44.801,35.008a55.823,55.823,0,0,0-21.504-28.61,55.7947,55.7947,0,0,0,21.504-28.605,55.7894,55.7894,0,0,0,21.504,28.605,55.8177,55.8177,0,0,0-21.504,28.61Zm0,0" transform="translate(-114 -204)"/></svg>