<svg id="Layer_1" data-name="Layer 1" xmlns="http://www.w3.org/2000/svg" width="336" height="372" viewBox="0 0 336 372"><path d="M411.625,450.883,360,433.676V426H348v11.258l-8.957,35.824L314.809,444H297.188l-24.235,29.082L264,437.258V426H252v7.676l-51.625,17.207a65.8588,65.8588,0,0,0-44.23,51.762L142.914,582H469.078l-13.226-79.355a65.8366,65.8366,0,0,0-44.227-51.762ZM210.629,570l5.34-53.398-11.938-1.196-5.461,54.602H157.086l10.894-65.383a53.8965,53.8965,0,0,1,36.196-42.355l25.793-8.598-15.645,41.719,29.395,11.757-10.746,21.489L264,570Zm108.914,0,16.301-70.648-11.696-2.704L307.223,570h-2.446l-16.925-73.352-11.696,2.704L292.457,570H279l-31.973-42.629,13.254-26.516-30.605-12.238,14.933-39.824,9.145-3.055,13.293,53.18L302.809,456h6.379l35.765,42.918,13.293-53.18,9.141,3.051,14.933,39.82-30.605,12.243,13.254,26.511L333,570Zm93.887,0-5.461-54.602-11.938,1.196,5.34,53.398H348l31.027-41.367-10.746-21.488,29.395-11.758L382.031,453.66l25.793,8.598a53.8931,53.8931,0,0,1,36.196,42.355L454.914,570Zm0,0" transform="translate(-138 -210)"/><path d="M474,312a35.9931,35.9931,0,0,0-18.324-31.324,35.8694,35.8694,0,0,0-54.539-35.235,29.45,29.45,0,0,0-31.11-1.871,77.8433,77.8433,0,0,0-128.054,0,29.45,29.45,0,0,0-31.11,1.871,35.8668,35.8668,0,0,0-54.539,35.235,35.7807,35.7807,0,0,0-14.594,47.14A29.4205,29.4205,0,0,0,150.188,366H150a42.002,42.002,0,0,0,68.621,32.488,35.5947,35.5947,0,0,0,28.453,1.039c.09.09.168.192.258.282l23.398,23.402A29.7883,29.7883,0,0,0,291.941,432h28.121a29.8045,29.8045,0,0,0,21.211-8.785l23.403-23.399c.09-.089.168-.191.258-.289a35.5756,35.5756,0,0,0,28.445-1.039A42.002,42.002,0,0,0,462,366h-.188a29.4205,29.4205,0,0,0,8.458-38.184A35.8541,35.8541,0,0,0,474,312ZM234,390a23.9918,23.9918,0,0,1-22.734-16.277l-11.364,3.863a35.8222,35.8222,0,0,0,8.399,13.57,29.9146,29.9146,0,0,1-45.75-19.707,29.5109,29.5109,0,0,0,28.652-10.433l-9.277-7.618A17.9982,17.9982,0,1,1,168,324V312a29.7734,29.7734,0,0,0-17.297,5.574,23.9805,23.9805,0,0,1,45.426-14.886l11.059-4.661a35.7192,35.7192,0,0,0-39.153-21.492c-.004-.18-.035-.355-.035-.535a23.8472,23.8472,0,0,1,34.453-21.512A29.7278,29.7278,0,0,0,198,270h12a17.8736,17.8736,0,0,1,25.945-16.074A77.4216,77.4216,0,0,0,228,288v24.605a29.9139,29.9139,0,0,0,2.652,59.059,65.0458,65.0458,0,0,0,8.227,17.789A24.0426,24.0426,0,0,1,234,390Zm-5.719-31.02A17.8861,17.8861,0,0,1,228,325.105v28.043c0,1.961.113,3.907.281,5.832Zm143.711-5.832a53.6469,53.6469,0,0,1-15.812,38.184L332.785,414.73A18.1234,18.1234,0,0,1,320.059,420H291.938a18.124,18.124,0,0,1-12.727-5.27l-23.402-23.398a53.6475,53.6475,0,0,1-15.817-38.184V324a30,30,0,1,0,60,0h12a30,30,0,0,0,60,0ZM252,324a18,18,0,1,1,18,18,18.0194,18.0194,0,0,1-18-18Zm72,0a18,18,0,1,1,18,18,18.0194,18.0194,0,0,1-18-18Zm48-12h-2.543a29.9413,29.9413,0,0,0-54.914,0H297.457a29.9413,29.9413,0,0,0-54.914,0H240V288a66,66,0,0,1,132,0Zm90,30a18.0007,18.0007,0,0,1-31.926,11.406l-9.277,7.614a29.5165,29.5165,0,0,0,28.652,10.429,29.9146,29.9146,0,0,1-45.75,19.707,35.8222,35.8222,0,0,0,8.399-13.57l-11.364-3.863a23.7472,23.7472,0,0,1-27.613,15.73,64.8649,64.8649,0,0,0,8.227-17.789A29.9139,29.9139,0,0,0,384,312.605V288a77.4216,77.4216,0,0,0-7.945-34.074A17.8736,17.8736,0,0,1,402,270h12a29.7278,29.7278,0,0,0-4.453-15.512A23.8472,23.8472,0,0,1,444,276c0,.18-.031.355-.035.535a35.723,35.723,0,0,0-39.153,21.485l11.059,4.664a23.9673,23.9673,0,0,1,45.426,14.89A29.7734,29.7734,0,0,0,444,312v12a18.0194,18.0194,0,0,1,18,18Zm-78.281,16.98c.168-1.925.281-3.871.281-5.832V325.105a17.8861,17.8861,0,0,1-.281,33.875Zm0,0" transform="translate(-138 -210)"/><path d="M261.816,256.945l9.817,6.907A42.0749,42.0749,0,0,1,306,246V234a54.111,54.111,0,0,0-44.184,22.945Zm0,0" transform="translate(-138 -210)"/><path d="M252.422,281.262l11.902,1.48a41.53,41.53,0,0,1,2.731-10.492l-11.125-4.508a53.6243,53.6243,0,0,0-3.508,13.52Zm0,0" transform="translate(-138 -210)"/></svg>