<svg id="Layer_1" data-name="Layer 1" xmlns="http://www.w3.org/2000/svg" xmlns:xlink="http://www.w3.org/1999/xlink" width="511.8813" height="512" viewBox="0 0 511.8813 512"><defs><style>.cls-1{fill:none;}.cls-2{clip-path:url(#clip-path);}</style><clipPath id="clip-path" transform="translate(-50.258 -140)"><rect class="cls-1" x="50" y="140" width="512" height="512"/></clipPath></defs><path d="M297.746,515.406a8.53,8.53,0,1,0,0,17.059A136.6286,136.6286,0,0,0,434.211,396a8.53,8.53,0,1,0-17.059,0A119.5318,119.5318,0,0,1,297.746,515.406Zm0,0" transform="translate(-50.258 -140)"/><path d="M331.863,378.941a42.6465,42.6465,0,1,0-42.648-42.644,42.6422,42.6422,0,0,0,42.648,42.644Zm0-68.234a25.59,25.59,0,1,1-25.59,25.59,25.5883,25.5883,0,0,1,25.59-25.59Zm0,0" transform="translate(-50.258 -140)"/><path d="M220.984,327.766a34.117,34.117,0,1,0,34.118,34.121,34.1189,34.1189,0,0,0-34.118-34.121Zm0,51.175a17.0565,17.0565,0,1,1,17.059-17.054,17.0557,17.0557,0,0,1-17.059,17.054Zm0,0" transform="translate(-50.258 -140)"/><path d="M331.863,438.645a34.119,34.119,0,1,0-34.117,34.117,34.1182,34.1182,0,0,0,34.117-34.117Zm-51.179,0a17.0605,17.0605,0,1,1,17.062,17.058,17.0608,17.0608,0,0,1-17.062-17.058Zm0,0" transform="translate(-50.258 -140)"/><path d="M200.684,430.801a9.8113,9.8113,0,0,0-2.813,1.789,8.9688,8.9688,0,0,0-2.476,6.055,8.5489,8.5489,0,0,0,.683,3.242,8.6972,8.6972,0,0,0,1.793,2.812,9.8239,9.8239,0,0,0,2.813,1.793,8.5459,8.5459,0,0,0,3.242.684,8.9731,8.9731,0,0,0,6.054-2.477,8.7563,8.7563,0,0,0,1.79-2.812,8.4923,8.4923,0,0,0,.683-3.242,8.9471,8.9471,0,0,0-2.473-6.055,8.7049,8.7049,0,0,0-9.296-1.789Zm0,0" transform="translate(-50.258 -140)"/><g class="cls-2"><path d="M243.328,481.973a9.9076,9.9076,0,0,0-2.816,1.793,8.9763,8.9763,0,0,0-2.469,6.054,8.4983,8.4983,0,0,0,.684,3.242,8.7406,8.7406,0,0,0,1.785,2.813,9.9167,9.9167,0,0,0,2.816,1.789,8.5022,8.5022,0,0,0,3.242.684,8.9705,8.9705,0,0,0,6.055-2.473,8.7122,8.7122,0,0,0,1.793-2.813,8.5932,8.5932,0,0,0,.684-3.242,8.97,8.97,0,0,0-2.477-6.054,8.7,8.7,0,0,0-9.297-1.793Zm0,0" transform="translate(-50.258 -140)"/><path d="M528.031,361.887a34.1083,34.1083,0,0,0-32.906,25.582H467.891a169.6107,169.6107,0,0,0-43.84-105.715l19.043-19.047a42.6447,42.6447,0,1,0-12.059-12.059l-19.004,19.043a169.642,169.642,0,0,0-105.758-43.839V207.148a34.1177,34.1177,0,1,0-17.058,0v18.704A169.6616,169.6616,0,0,0,183.5,269.691l-19.047-19.043a42.5837,42.5837,0,1,0-12.058,12.059l19.043,19.047a169.6664,169.6664,0,0,0-43.84,105.715H108.715a29.85,29.85,0,1,0,0,17.058h18.883a169.6574,169.6574,0,0,0,43.84,105.762l-19.043,19.047a42.6438,42.6438,0,1,0,12.058,12.059L183.5,522.348a169.6074,169.6074,0,0,0,105.715,43.8v18.704a34.1173,34.1173,0,1,0,17.058,0V566.148a169.6242,169.6242,0,0,0,105.758-43.843l19.047,19.05a42.6439,42.6439,0,1,0,12.059-12.062l-19.086-19.004a169.6185,169.6185,0,0,0,43.84-105.762h27.234a34.0563,34.0563,0,1,0,32.906-42.64ZM448.523,209.043a25.5066,25.5066,0,1,1-7.527,18.09,25.58,25.58,0,0,1,7.527-18.09ZM280.684,174.246a17.0605,17.0605,0,1,1,17.062,17.055,17.06,17.06,0,0,1-17.062-17.055ZM110.789,245.227a25.59,25.59,0,1,1,36.176,0,25.5962,25.5962,0,0,1-36.176,0ZM80.254,408.797A12.795,12.795,0,1,1,93.047,396a12.7982,12.7982,0,0,1-12.793,12.797Zm66.711,174.16a25.5864,25.5864,0,1,1,0-36.18,25.5946,25.5946,0,0,1,0,36.18Zm167.84,34.801a17.0605,17.0605,0,1,1-17.059-17.059,17.0574,17.0574,0,0,1,17.059,17.059Zm151.812-78.469a25.5889,25.5889,0,1,1-18.086,7.481,25.5855,25.5855,0,0,1,18.086-7.481ZM297.746,549.523A153.523,153.523,0,1,1,451.266,396a153.5248,153.5248,0,0,1-153.52,153.523ZM528.031,413.059A17.059,17.059,0,1,1,545.086,396a17.0574,17.0574,0,0,1-17.055,17.059Zm0,0" transform="translate(-50.258 -140)"/></g></svg>