<svg id="Layer_1" data-name="Layer 1" xmlns="http://www.w3.org/2000/svg" width="384" height="383.996" viewBox="0 0 384 383.996"><path d="M260.602,473.332a6.0725,6.0725,0,0,0,0-12.145c-74.141,0-134.457-60.316-134.457-134.453a6.0725,6.0725,0,1,0-12.145,0A146.5176,146.5176,0,0,0,260.602,473.332Zm0,0" transform="translate(-114 -205)"/><path d="M455.086,363.574A145.6749,145.6749,0,0,0,351.398,320.66a6.0725,6.0725,0,0,0,0,12.145c74.141,0,134.457,60.316,134.457,134.457a6.0725,6.0725,0,0,0,12.145,0,145.6584,145.6584,0,0,0-42.914-103.688Zm0,0" transform="translate(-114 -205)"/><path d="M327.875,474.488a6.0711,6.0711,0,0,0-8.586,0c-52.426,52.426-137.727,52.422-190.148,0a6.0726,6.0726,0,0,0-8.59,8.586,146.5163,146.5163,0,0,0,207.324,0,6.0675,6.0675,0,0,0,0-8.586Zm0,0" transform="translate(-114 -205)"/><path d="M284.125,319.504a6.079,6.079,0,0,0,8.59,0c52.422-52.422,137.723-52.426,190.148,0a6.0712,6.0712,0,0,0,8.586-8.586,146.5163,146.5163,0,0,0-207.324,0,6.0711,6.0711,0,0,0,0,8.586Zm0,0" transform="translate(-114 -205)"/><path d="M376.266,436.324a6.0728,6.0728,0,0,0-6.075,6.07c0,74.141-60.316,134.457-134.457,134.457a6.0725,6.0725,0,0,0,0,12.145A146.5245,146.5245,0,0,0,382.336,442.394a6.0692,6.0692,0,0,0-6.07-6.07Zm0,0" transform="translate(-114 -205)"/><path d="M235.734,357.668a6.0728,6.0728,0,0,0,6.075-6.07A134.38,134.38,0,0,1,376.266,217.141a6.0705,6.0705,0,0,0,0-12.141h-.004A146.5108,146.5108,0,0,0,229.664,351.598a6.0692,6.0692,0,0,0,6.07,6.07Zm0,0" transform="translate(-114 -205)"/><path d="M383.492,375.121a6.0711,6.0711,0,0,0,0,8.586c52.422,52.426,52.422,137.727,0,190.152a6.0712,6.0712,0,0,0,8.586,8.586,146.5211,146.5211,0,0,0,.004-207.324,6.076,6.076,0,0,0-8.59,0Zm0,0" transform="translate(-114 -205)"/><path d="M224.215,420.652a6.074,6.074,0,0,0,4.293-10.367c-52.422-52.426-52.422-137.727,0-190.152a6.0712,6.0712,0,0,0-8.586-8.586,146.5163,146.5163,0,0,0,0,207.324,6.0425,6.0425,0,0,0,4.293,1.781Zm0,0" transform="translate(-114 -205)"/><path d="M341.254,413.98a6.0762,6.0762,0,0,0,7.566-4.062,44.7485,44.7485,0,1,0-11.672,19.164,6.0729,6.0729,0,0,0-8.46-8.715,32.4329,32.4329,0,1,1,8.503-13.953,6.0726,6.0726,0,0,0,4.063,7.566Zm0,0" transform="translate(-114 -205)"/></svg>