<svg id="Layer_1" data-name="Layer 1" xmlns="http://www.w3.org/2000/svg" width="383.996" height="384" viewBox="0 0 383.996 384"><path d="M467.031,204a30.9669,30.9669,0,0,0-29.906,38.996l-44.84,22.422a30.9537,30.9537,0,1,0-36.973,47.363l-11.617,52.266c-.175-.004-.355-.016-.531-.016a31.0241,31.0241,0,0,0-30.332,24.703l-137.52.071a30.9688,30.9688,0,1,0-31.867,37.125l15.5,101.082a31.0264,31.0264,0,1,0,41.532,25.304l91.097-30.367a30.9584,30.9584,0,1,0,39.438-43.73l11.617-52.266c.176.004.351.012.531.012a30.9588,30.9588,0,0,0,12.625-59.231l11.613-52.265c.18.004.356.011.536.011a30.957,30.957,0,0,0,29.906-38.996l44.84-22.418A30.9582,30.9582,0,1,0,467.031,204ZM126.387,396a18.58,18.58,0,1,1,18.582,18.582A18.6032,18.6032,0,0,1,126.387,396Zm43.355,179.613a18.58,18.58,0,1,1,18.582-18.582,18.6032,18.6032,0,0,1-18.582,18.582Zm117.676-68.129a30.7855,30.7855,0,0,0,.234,3.715l-91.097,30.367a30.9872,30.9872,0,0,0-25.371-15.464L155.691,425.051a31.0637,31.0637,0,0,0,19.621-22.86c23.45-.011,114.008-.058,137.493-.07a31.0717,31.0717,0,0,0,17.73,22.145l-11.613,52.265c-.18-.004-.356-.015-.535-.015a31.003,31.003,0,0,0-30.969,30.968Zm49.551,0a18.582,18.582,0,1,1-18.582-18.582,18.6,18.6,0,0,1,18.582,18.582ZM361.742,396a18.58,18.58,0,1,1-18.582-18.582A18.6032,18.6032,0,0,1,361.742,396Zm6.196-92.902a18.58,18.58,0,1,1,18.578-18.582,18.6034,18.6034,0,0,1-18.578,18.582Zm99.093-49.551a18.58,18.58,0,1,1,18.582-18.578,18.599,18.599,0,0,1-18.582,18.578Zm0,0" transform="translate(-114 -204)"/><path d="M158.18,241.574a6.6055,6.6055,0,1,1-6.606-6.605,6.6052,6.6052,0,0,1,6.606,6.605Zm0,0" transform="translate(-114 -204)"/><path d="M182.953,266.348a6.6055,6.6055,0,1,1-6.605-6.606,6.6048,6.6048,0,0,1,6.605,6.606Zm0,0" transform="translate(-114 -204)"/><path d="M232.504,315.898a6.6075,6.6075,0,1,1-6.606-6.609,6.6052,6.6052,0,0,1,6.606,6.609Zm0,0" transform="translate(-114 -204)"/><path d="M306.824,266.348a6.6055,6.6055,0,1,1-6.605-6.606,6.6048,6.6048,0,0,1,6.605,6.606Zm0,0" transform="translate(-114 -204)"/><path d="M467.031,550.426a6.6055,6.6055,0,1,1-6.605-6.606,6.6048,6.6048,0,0,1,6.605,6.606Zm0,0" transform="translate(-114 -204)"/><path d="M467.031,401.781a6.6055,6.6055,0,1,1-6.605-6.605,6.605,6.605,0,0,1,6.605,6.605Zm0,0" transform="translate(-114 -204)"/><path d="M442.258,426.555a6.6055,6.6055,0,1,1-6.606-6.606,6.605,6.605,0,0,1,6.606,6.606Zm0,0" transform="translate(-114 -204)"/></svg>