<?xml version="1.0" encoding="iso-8859-1"?>
<!-- Generator: Adobe Illustrator 19.0.0, SVG Export Plug-In . SVG Version: 6.00 Build 0)  -->
<svg version="1.1" id="Capa_1" xmlns="http://www.w3.org/2000/svg" xmlns:xlink="http://www.w3.org/1999/xlink" x="0px" y="0px"
	 viewBox="0 0 512.002 512.002" style="enable-background:new 0 0 512.002 512.002;" xml:space="preserve">
<g>
	<g>
		<path d="M385.949,0.765c-22.159-4.293-43.452,9.914-48.514,32.359l-36.47,147.887L264.497,33.124
			c-5.06-22.447-26.357-36.655-48.514-32.359c-21.157,4.103-35.153,24.909-30.895,44.567l3.424,15.508
			c0.894,4.045,4.898,6.601,8.942,5.707c4.045-0.893,6.601-4.896,5.708-8.941l-3.403-15.413
			c-2.356-12.301,6.681-24.294,19.081-26.699c13.287-2.578,27.059,4.788,31.074,21.148l43.769,177.496
			c1.87,7.581,12.697,7.578,14.565,0C353.356,31.22,352.017,36.663,352.057,36.481c3.297-14.756,16.636-23.779,31.036-20.986
			c12.393,2.401,21.439,14.39,19.08,26.7l-28.002,126.801c-0.894,4.045,1.661,8.049,5.707,8.941
			c4.049,0.901,8.049-1.662,8.941-5.707l28.024-126.899C421.193,26.686,407.762,4.996,385.949,0.765z"/>
	</g>
</g>
<g>
	<g>
		<path d="M372.645,245.473l8.614-39.008c0.894-4.045-1.661-8.049-5.707-8.941c-4.052-0.898-8.049,1.662-8.941,5.707l-8.669,39.253
			c-46.285-7.158-73.902-23.642-92.158-21.955c-10.018,0.925-16.047,6.941-20.132,13.493l-7.334-49.403
			c-1.344-9.052-5.656-17.202-12.273-23.39l-15.334-69.443c-0.894-4.045-4.896-6.597-8.942-5.707
			c-4.045,0.893-6.601,4.896-5.708,8.941l12.482,56.52c-19.45-5.063-39.594,5.143-47.267,23.586
			c-24.05-21.157-62.515-7.236-66.582,25.301c-0.67,5.448-0.147,0.14-0.306,158.228c0,28.175,8.897,54.96,25.727,77.46
			c12.982,17.355,9.503,35.539,10.046,40.369c0,19.583,15.932,35.514,35.513,35.514h13.632c4.142,0,7.501-3.357,7.501-7.501
			c0-4.143-3.358-7.501-7.501-7.501h-13.631c-11.311,0-20.512-9.202-20.512-20.513c-0.546-4.499,3.33-27.479-13.035-49.355
			c-14.876-19.887-22.738-43.565-22.738-68.476v-57.796c13.112,31.266,57.069,33.388,72.89,2.918
			c7.418,7.597,17.737,12.191,28.817,12.19c1.959,0,3.944-0.144,5.94-0.439c15.516-2.304,27.656-13.226,32.303-27.182
			c4.87,5.635,11.228,10.712,18.98,14.963c2.552,1.401,25.924,13.944,60.396,22.935c0.635,0.166,1.271,0.245,1.897,0.245
			c3.331,0,6.373-2.235,7.253-5.61c1.046-4.008-1.356-8.105-5.365-9.15c-33.281-8.681-56.01-21.048-56.964-21.571
			c-29.782-16.332-22.508-37.608-19.57-43.738c6.208-12.949,8.16-14.248,38.17-4.806c9.501,2.643,16.987,7.976,68.418,16.743
			c22.547,4.264,38.233,24.685,36.499,47.546l-0.124,1.642c-2.517,33.193-8.392,60.087-10.081,69.681
			c-2.943,16.676-13.807,37.719-32.395,54.685c-2.196,1.92-11.265,9.123-27.608,13.075c-4.026,0.974-6.502,5.027-5.528,9.054
			c0.969,4.006,5.001,6.505,9.054,5.528c2.52-0.61,4.894-1.291,7.141-2.016v19.141c0,11.196-9.108,20.306-20.305,20.306H214.313
			c-4.142,0-7.501,3.357-7.501,7.501c0,4.143,3.358,7.501,7.501,7.501h104.895c19.468,0,35.306-15.838,35.306-35.307v-23.841
			c0.588-0.654,41.064-27.442,49.109-73.025c1.216-6.939,7.61-36.11,10.266-71.151l0.123-1.641
			C416.132,279.079,398.726,253.856,372.645,245.473z M150.245,310.279c-13.74,2.047-26.671-7.543-28.712-21.288
			c-12.63-85.773-12.209-80.438-12.128-84.165c0.438-21.191,25.488-32.583,41.723-18.653c3.716,3.189,6.396,7.319,7.788,12.128
			c13.1,87.951,12.245,83.131,12.87,85.996C172.291,297.014,163.116,308.368,150.245,310.279z M214.834,300.691
			c-12.874,1.912-24.95-6.29-28.162-18.606c-0.16-1.998-12.081-83.283-13.074-87.049c0.016-0.403-2.385-10.092,4.612-19.531
			c13.576-18.309,42.027-10.524,45.27,11.318l12.642,85.156C238.169,285.764,228.619,298.645,214.834,300.691z"/>
	</g>
</g>
<g>
</g>
<g>
</g>
<g>
</g>
<g>
</g>
<g>
</g>
<g>
</g>
<g>
</g>
<g>
</g>
<g>
</g>
<g>
</g>
<g>
</g>
<g>
</g>
<g>
</g>
<g>
</g>
<g>
</g>
</svg>
