<svg id="Layer_1" data-name="Layer 1" xmlns="http://www.w3.org/2000/svg" width="383.25" height="383.25" viewBox="0 0 383.25 383.25"><path d="M305.625,306a89.625,89.625,0,1,0,89.625,89.625A89.7283,89.7283,0,0,0,305.625,306Zm0,168A78.375,78.375,0,1,1,384,395.625,78.4652,78.4652,0,0,1,305.625,474Zm0,0" transform="translate(-114 -204)"/><path d="M305.625,257.25a5.6271,5.6271,0,0,0,5.625-5.625v-42a5.625,5.625,0,0,0-11.25,0v42a5.6271,5.6271,0,0,0,5.625,5.625Zm0,0" transform="translate(-114 -204)"/><path d="M305.625,293.25a5.6271,5.6271,0,0,0,5.625-5.625v-12a5.625,5.625,0,0,0-11.25,0v12a5.6271,5.6271,0,0,0,5.625,5.625Zm0,0" transform="translate(-114 -204)"/><path d="M305.625,534A5.6271,5.6271,0,0,0,300,539.625v42a5.625,5.625,0,0,0,11.25,0v-42A5.6271,5.6271,0,0,0,305.625,534Zm0,0" transform="translate(-114 -204)"/><path d="M305.625,498A5.6271,5.6271,0,0,0,300,503.625v12a5.625,5.625,0,0,0,11.25,0v-12A5.6271,5.6271,0,0,0,305.625,498Zm0,0" transform="translate(-114 -204)"/><path d="M491.625,390h-42a5.625,5.625,0,0,0,0,11.25h42a5.625,5.625,0,0,0,0-11.25Zm0,0" transform="translate(-114 -204)"/><path d="M413.625,390a5.625,5.625,0,0,0,0,11.25h12a5.625,5.625,0,0,0,0-11.25Zm0,0" transform="translate(-114 -204)"/><path d="M167.25,395.625A5.6271,5.6271,0,0,0,161.625,390h-42a5.625,5.625,0,0,0,0,11.25h42a5.6271,5.6271,0,0,0,5.625-5.625Zm0,0" transform="translate(-114 -204)"/><path d="M185.625,390a5.625,5.625,0,0,0,0,11.25h12a5.625,5.625,0,0,0,0-11.25Zm0,0" transform="translate(-114 -204)"/><path d="M225.281,468.016l-49.633,49.632a5.6243,5.6243,0,1,0,7.954,7.954l49.632-49.633a5.6236,5.6236,0,0,0-7.953-7.953Zm0,0" transform="translate(-114 -204)"/><path d="M381.992,324.883a5.6114,5.6114,0,0,0,3.977-1.649l49.633-49.632a5.6243,5.6243,0,0,0-7.954-7.954l-49.632,49.633a5.6255,5.6255,0,0,0,3.976,9.602Zm0,0" transform="translate(-114 -204)"/><path d="M259.098,298a5.63,5.63,0,0,0,5.199,3.473,5.5609,5.5609,0,0,0,2.148-.43,5.6255,5.6255,0,0,0,3.047-7.348l-18.371-44.347a5.6236,5.6236,0,0,0-10.391,4.304Zm0,0" transform="translate(-114 -204)"/><path d="M352.152,493.25a5.6251,5.6251,0,0,0-10.394,4.305l18.371,44.347a5.6236,5.6236,0,0,0,10.391-4.304Zm0,0" transform="translate(-114 -204)"/><path d="M385.969,468.016a5.6236,5.6236,0,0,0-7.953,7.953l49.632,49.633a5.6243,5.6243,0,0,0,7.954-7.954Zm0,0" transform="translate(-114 -204)"/><path d="M225.281,323.234a5.6236,5.6236,0,0,0,7.953-7.953l-49.632-49.633a5.6243,5.6243,0,1,0-7.954,7.954Zm0,0" transform="translate(-114 -204)"/><path d="M344.801,301.043A5.6215,5.6215,0,0,0,352.152,298l18.368-44.348a5.6254,5.6254,0,0,0-10.395-4.304l-18.367,44.347a5.627,5.627,0,0,0,3.043,7.348Zm0,0" transform="translate(-114 -204)"/><path d="M266.449,490.207a5.6261,5.6261,0,0,0-7.351,3.043L240.73,537.598a5.6254,5.6254,0,0,0,10.395,4.304l18.367-44.347a5.627,5.627,0,0,0-3.043-7.348Zm0,0" transform="translate(-114 -204)"/><path d="M211.043,434.801a5.627,5.627,0,0,0-7.348-3.043l-44.347,18.367a5.6254,5.6254,0,1,0,4.304,10.395L208,442.152a5.6308,5.6308,0,0,0,3.043-7.351Zm0,0" transform="translate(-114 -204)"/><path d="M400.207,356.449a5.63,5.63,0,0,0,5.199,3.473,5.5657,5.5657,0,0,0,2.149-.43l44.347-18.367a5.6254,5.6254,0,0,0-4.304-10.395L403.25,349.098a5.6308,5.6308,0,0,0-3.043,7.351Zm0,0" transform="translate(-114 -204)"/><path d="M159.348,341.125l44.343,18.367A5.6259,5.6259,0,1,0,208,349.098L163.652,330.73a5.6254,5.6254,0,0,0-4.304,10.395Zm0,0" transform="translate(-114 -204)"/><path d="M451.902,450.125l-44.343-18.367a5.6259,5.6259,0,1,0-4.309,10.394l44.348,18.368a5.6254,5.6254,0,0,0,4.304-10.395Zm0,0" transform="translate(-114 -204)"/></svg>