<svg id="Layer_1" data-name="Layer 1" xmlns="http://www.w3.org/2000/svg" xmlns:xlink="http://www.w3.org/1999/xlink" width="383.9984" height="332.3084" viewBox="0 0 383.9984 332.3084"><defs><style>.cls-1{fill:none;}.cls-2{clip-path:url(#clip-path);}</style><clipPath id="clip-path" transform="translate(-114.0005 -229.8436)"><rect class="cls-1" x="114" y="229" width="384" height="334"/></clipPath></defs><g class="cls-2"><path d="M497.82,344.746,470.57,234.41a5.975,5.975,0,0,0-7.265-4.387l-37.957,9.379a5.9915,5.9915,0,0,0-4.379,7.266l27.258,110.336a6.0064,6.0064,0,0,0,5.82,4.558,5.7645,5.7645,0,0,0,1.445-.179l37.949-9.379a5.9865,5.9865,0,0,0,4.379-7.258Zm-39.382,3.551-24.379-98.684,26.304-6.496,24.371,98.68Zm0,0" transform="translate(-114.0005 -229.8436)"/></g><path d="M457.91,346.184l-23.336-94.465a5.9965,5.9965,0,0,0-7.265-4.383L304.387,277.699A6.01,6.01,0,0,0,300,284.965l23.336,94.465a6.0065,6.0065,0,0,0,5.82,4.562,5.6471,5.6471,0,0,0,1.453-.183l122.922-30.364a5.9931,5.9931,0,0,0,4.379-7.261ZM333.555,370.73l-20.461-82.816,111.277-27.488,20.453,82.82Zm0,0" transform="translate(-114.0005 -229.8436)"/><path d="M334.988,376.555l-23.336-94.461a5.9969,5.9969,0,0,0-7.265-4.387l-20.465,5.059a5.9952,5.9952,0,0,0-4.387,7.257l23.336,94.465a5.9976,5.9976,0,0,0,5.824,4.559,6.26,6.26,0,0,0,1.442-.172l20.472-5.059a5.9912,5.9912,0,0,0,4.379-7.261Zm-21.902-.766-20.457-82.82,8.812-2.176,20.461,82.816Zm0,0" transform="translate(-114.0005 -229.8436)"/><path d="M312,371.402l-18.297-74.047a6.0063,6.0063,0,0,0-7.262-4.386L219.93,309.398a5.9981,5.9981,0,0,0-4.383,7.266l18.285,74.047a6.0089,6.0089,0,0,0,5.828,4.559,5.6052,5.6052,0,0,0,1.438-.184l13.687-3.379-2.875-11.648-7.859,1.945-15.414-62.399,54.863-13.55,15.414,62.402-7.863,1.941,2.871,11.649,13.695-3.379A6,6,0,0,0,312,371.402Zm0,0" transform="translate(-114.0005 -229.8436)"/><path d="M245.48,387.832l-18.289-74.047a5.9987,5.9987,0,0,0-7.261-4.387L201,314.07a6.0068,6.0068,0,0,0-4.383,7.27l18.285,74.043a6.0084,6.0084,0,0,0,5.821,4.566,6.2227,6.2227,0,0,0,1.441-.172l18.93-4.679a6.01,6.01,0,0,0,4.386-7.266Zm-20.363-1.148-15.414-62.399,7.281-1.801,15.414,62.399Zm0,0" transform="translate(-114.0005 -229.8436)"/><g class="cls-2"><path d="M222.523,376.227l-10.246-41.485a5.9989,5.9989,0,0,0-7.261-4.387l-66.512,16.43a6,6,0,0,0-4.383,7.266l10.246,41.484a6.0063,6.0063,0,0,0,5.821,4.559,6.3444,6.3444,0,0,0,1.445-.172l66.504-16.43a6.0035,6.0035,0,0,0,4.386-7.265Zm-67.937,10.609-7.375-29.84,54.863-13.555,7.375,29.84Zm0,0" transform="translate(-114.0005 -229.8436)"/><path d="M157.027,396.758,144.75,347.059a5.984,5.984,0,0,0-7.258-4.383l-18.93,4.672a6.0035,6.0035,0,0,0-4.386,7.265l12.277,49.703a6.0063,6.0063,0,0,0,5.82,4.563,5.7025,5.7025,0,0,0,1.438-.188l18.93-4.671a6.0085,6.0085,0,0,0,4.386-7.262Zm-20.363-1.141-9.398-38.051,7.285-1.8,9.398,38.05Zm0,0" transform="translate(-114.0005 -229.8436)"/><path d="M272.461,352.957a26.254,26.254,0,1,0,26.258,26.25,26.2788,26.2788,0,0,0-26.258-26.25Zm0,40.5a14.252,14.252,0,1,1,14.258-14.254,14.2676,14.2676,0,0,1-14.258,14.254Zm0,0" transform="translate(-114.0005 -229.8436)"/><path d="M353.551,552.746,286.125,394.07a20.0176,20.0176,0,0,1-27.324,0l-67.43,158.676a6.76,6.76,0,0,0,12.445,5.281l61.883-145.621V543.961a6.762,6.762,0,0,0,13.524,0V412.414l61.886,145.617a6.759,6.759,0,1,0,12.442-5.285Zm0,0" transform="translate(-114.0005 -229.8436)"/></g></svg>