<svg id="Layer_1" data-name="Layer 1" xmlns="http://www.w3.org/2000/svg" width="1200" height="1200" viewBox="0 0 340 384"><path d="M254.31,347.31a7.5,7.5,0,0,0-10.38-2.2h0A147.34,147.34,0,0,1,163.29,369C81.71,369,15.34,302.63,15.34,221.05A147.17,147.17,0,0,1,40.56,138.4a7.5,7.5,0,1,0-12.37-8.49l-.06.09a163,163,0,0,0,224,227.68,7.49,7.49,0,0,0,2.19-10.37h0Z" fill="#75b1ba"/><path d="M279.5,324.56a7.5,7.5,0,0,0-10.6.1h0l-.25.26a7.5,7.5,0,1,0,10.61,10.6l0,0,.3-.31a7.49,7.49,0,0,0-.09-10.6Z" fill="#75b1ba"/><rect width="340" height="384" fill="none"/><path d="M163.29,114.74a7.5,7.5,0,0,0-7.5,7.5v16.51a7.5,7.5,0,0,0,15,0V122.24A7.5,7.5,0,0,0,163.29,114.74Z" fill="#75b1ba"/><path d="M238.46,145.88a7.48,7.48,0,1,0,2.2,5.3A7.59,7.59,0,0,0,238.46,145.88Z" fill="#75b1ba"/><path d="M262.1,213.55H245.59a7.5,7.5,0,1,0,0,15H262.1a7.5,7.5,0,0,0,0-15Z" fill="#75b1ba"/><path d="M238.46,285.61a7.5,7.5,0,1,0,2.2,5.3A7.59,7.59,0,0,0,238.46,285.61Z" fill="#75b1ba"/><path d="M163.29,295.85a7.5,7.5,0,0,0-7.5,7.5h0v16.5a7.5,7.5,0,0,0,15,0v-16.5A7.51,7.51,0,0,0,163.29,295.85Z" fill="#75b1ba"/><path d="M98.73,285.61a7.5,7.5,0,1,0,2.2,5.3A7.59,7.59,0,0,0,98.73,285.61Z" fill="#75b1ba"/><path d="M81,213.55H64.48a7.5,7.5,0,0,0,0,15H81a7.5,7.5,0,1,0,0-15Z" fill="#75b1ba"/><path d="M98.73,145.88a7.48,7.48,0,1,0,2.2,5.3A7.59,7.59,0,0,0,98.73,145.88Z" fill="#75b1ba"/><path d="M221.85,162.49a7.5,7.5,0,0,0-9.19-1.11l-61.91,37.48a19.33,19.33,0,0,0-2.24,1.43A25.49,25.49,0,0,0,178,241.84a25.8,25.8,0,0,0,6-5.93,19.58,19.58,0,0,0,1.49-2.33L223,171.68A7.5,7.5,0,0,0,221.85,162.49ZM172.57,226l-.63,1a10.49,10.49,0,1,1-17.32-11.85,10.81,10.81,0,0,1,2.74-2.74l1-.61A10.49,10.49,0,0,1,172.57,226Zm11.71-19.36a25.42,25.42,0,0,0-6.54-6.54l16.59-10Z" fill="#75b1ba"/><path d="M163.29,91.13A130.07,130.07,0,0,0,33.36,221.05C33.36,292.69,91.65,351,163.29,351a129.93,129.93,0,1,0,0-259.85Zm0,244.85A114.93,114.93,0,1,1,278.22,221.05h0A115.07,115.07,0,0,1,163.29,336Z" fill="#75b1ba"/><path d="M59.13,105.37a7.5,7.5,0,1,0,2.2,5.3A7.57,7.57,0,0,0,59.13,105.37Z" fill="#75b1ba"/><path d="M309.88,122.92a7.52,7.52,0,0,0,10.61,0L333,110.42a22.84,22.84,0,0,0,0-32.29L306.21,51.36a22.83,22.83,0,0,0-32.29,0l-12.5,12.49a7.51,7.51,0,0,0,0,10.6L265,78l-9,9a161.06,161.06,0,0,0-63.44-26.28V48H209a7.5,7.5,0,0,0,7.5-7.5V7.5A7.5,7.5,0,0,0,209,0h-91.5A7.5,7.5,0,0,0,110,7.5v33a7.5,7.5,0,0,0,7.5,7.5H134V60.73A162,162,0,0,0,73.69,84.92,7.5,7.5,0,0,0,82,97.45,147.3,147.3,0,0,1,163.29,73.1c81.58,0,148,66.37,148,148a147.59,147.59,0,0,1-22.21,78,7.5,7.5,0,0,0,12.72,8l0,0a163.11,163.11,0,0,0-4.42-178.62l9-9ZM177.54,58.72q-7.06-.6-14.25-.62T149,58.72V48h28.5V58.72ZM141.54,33H125V15h76.5V33Zm146.61,83.34q-4.57-5.41-9.64-10.51T268,96.19l7.57-7.58,20.16,20.15ZM280.88,72.7h0l-3.53-3.55L284.52,62a7.83,7.83,0,0,1,11.08,0l26.77,26.77a7.83,7.83,0,0,1,0,11.08L315.19,107l-3.54-3.54h0Z" fill="#75b1ba"/></svg>