<svg id="Layer_1" data-name="Layer 1" xmlns="http://www.w3.org/2000/svg" viewBox="0 0 400 287.64"><g opacity="0.75"><path d="M74.2,160.88a38.21,38.21,0,0,0,16,32.32c2.56,1.79,10.24,6.59,18.46,6.59a19.68,19.68,0,0,0,3.49-.31c-1,7,.87,14.7,5.15,21.71,7.13,11.66,17,19.9,26.94,22.6a54,54,0,0,0,14,1.9c8.14,0,15.61-2.05,21.24-6,5-3.52,9.36-12.33,9.05-18.22V202.78a2,2,0,0,0,0-1V113.73h0v-77s0-.09,0-.13c0-7.06-4.29-14-11.12-18C170,14.36,161.67,14.4,156,15.19c-9.37,1.3-17.52,5.37-22.95,11.45C127.39,33,125,41.54,126.5,49.13a38.69,38.69,0,0,0-32.16,10C84.74,68,80.59,80.51,83.22,92.64a24.07,24.07,0,0,0,10.83,15.73,24.22,24.22,0,0,0-3.78,9.83A25.56,25.56,0,0,0,91,129.56,38.12,38.12,0,0,0,74.2,160.88Z" fill="#ff758e"/></g><g opacity="0.75"><path d="M309.66,148.64a25.55,25.55,0,0,0,.71-11.36,24.34,24.34,0,0,0-3.78-9.83,24,24,0,0,0,10.82-15.72c2.64-12.13-1.52-24.65-11.11-33.48a38.69,38.69,0,0,0-32.17-10c1.54-7.6-.88-16.17-6.53-22.5-5.43-6.08-13.57-10.14-23-11.44-5.68-.79-14-.84-21.39,3.42-6.82,3.93-11.11,10.92-11.12,18,0,0,0,.09,0,.13v77h0v88.07a2.16,2.16,0,0,0,0,1v18.67c-.3,5.9,4.05,14.7,9.05,18.22,5.64,4,13.1,6,21.25,6a53.5,53.5,0,0,0,13.94-1.91c10-2.7,19.82-10.94,26.94-22.6,4.29-7,6.12-14.71,5.16-21.71a19.59,19.59,0,0,0,3.48.32c8.23,0,15.9-4.81,18.47-6.6a39.08,39.08,0,0,0-.76-63.64Z" fill="#3596e3"/></g><path d="M197.71,213.06a2.6,2.6,0,0,0,0-1V124h0V47s0-.09,0-.13c0-7.14-4.33-14.19-11.22-18.17-7.44-4.29-15.81-4.24-21.53-3.45-9.42,1.31-17.62,5.4-23.08,11.52a26.84,26.84,0,0,0-6.64,22.38,38.9,38.9,0,0,0-32,10.13C93.53,78.14,89.35,90.74,92,102.94a24.35,24.35,0,0,0,10.74,15.76,24.5,24.5,0,0,0-3.69,9.72,25.8,25.8,0,0,0,.66,11.31,39.29,39.29,0,0,0-.63,63.9c2.58,1.8,10.3,6.63,18.6,6.63a19.75,19.75,0,0,0,3.24-.26c-.88,7,1,14.6,5.21,21.55,7.15,11.71,17,20,27.06,22.7a54,54,0,0,0,14,1.91c8.19,0,15.7-2.07,21.38-6.07,5-3.55,9.44-12.43,9.13-18.39V213.06Zm-11.87,33.17c-7.67,5.41-19.41,6.7-31.41,3.45-8.89-2.4-17.74-9.9-24.27-20.59-3.75-6.12-5.36-12.79-4.53-18.76.91-6.59,5-12.36,10.46-14.7l.06,0a20.63,20.63,0,0,0,4.46,2.62,21.39,21.39,0,0,0,8.33,1.66,21.94,21.94,0,0,0,12.22-3.66,2.36,2.36,0,1,0-2.66-3.91A16.82,16.82,0,0,1,137.69,166a2.36,2.36,0,1,0-3.19-3.49A22,22,0,0,0,127.81,182a21.65,21.65,0,0,0,4.73,10.11,23.35,23.35,0,0,0-10.41,12.71c-6.52,2.14-14.74-1.18-20.35-5.08a34.6,34.6,0,0,1-.18-55.59,19.22,19.22,0,0,0,10.68,9,16.84,16.84,0,0,0,5.09.79,15.61,15.61,0,0,0,10-3.49,2.36,2.36,0,1,0-3-3.63,11.5,11.5,0,0,1-10.61,1.83,14.81,14.81,0,0,1-8.46-7.61,20.1,20.1,0,0,1-1.55-11.86,18.09,18.09,0,0,1,6.23-11.44c3.47-2.72,8.19-3.43,11.73-1.76a2.37,2.37,0,0,0,2-4.28c-5.13-2.41-11.82-1.48-16.67,2.32-.4.31-.78.66-1.15,1a19.33,19.33,0,0,1-9.25-13.07c-2.33-10.71,1.23-21.35,9.76-29.21A34,34,0,0,1,135.79,64a15.07,15.07,0,0,0,0,14.91,2.36,2.36,0,1,0,4.07-2.4,10,10,0,0,1,14-13.45,2.36,2.36,0,1,0,2.56-4,15.09,15.09,0,0,0-16.27.25c-1.67-6.43.34-14,5.28-19.48,4.71-5.29,11.89-8.83,20.2-10,5-.69,12.24-.75,18.51,2.86,5.57,3.21,9.13,9.12,8.87,14.71a1.13,1.13,0,0,0,0,.26V79.8a24.74,24.74,0,0,1-14.67-1.15,17.81,17.81,0,0,1-10.2-11.17c-1.36-5,.27-10.62,4-13.68a2.36,2.36,0,0,0-3-3.64,18.12,18.12,0,0,0-5.52,18.57A22.33,22.33,0,0,0,176.45,83a27.74,27.74,0,0,0,10.9,2.14,31.77,31.77,0,0,0,5.63-.51V123.5c-2.45,5.52-9.33,9.71-15.27,9.21a15.11,15.11,0,0,1-12.84-10.79,21.64,21.64,0,0,0,5.32-8.55,22.28,22.28,0,0,0-5.77-22.69,2.37,2.37,0,0,0-3.25,3.44,17.14,17.14,0,1,1-26.23,21.67,2.36,2.36,0,1,0-4,2.54,22.31,22.31,0,0,0,18.58,10.11,20.51,20.51,0,0,0,2.6-.16,21.68,21.68,0,0,0,8.8-3.2,19.79,19.79,0,0,0,16.37,12.34c.45,0,.9.05,1.35.05A21.5,21.5,0,0,0,193,131.42v75.31a20.78,20.78,0,0,0-33.4,19.6,2.36,2.36,0,0,0,2.33,2,2.31,2.31,0,0,0,.37,0,2.36,2.36,0,0,0,2-2.7A16.13,16.13,0,0,1,193,213.26v18.42s0,0,0,.08a.21.21,0,0,0,0,.08C193.25,235.78,189.94,243.35,185.84,246.23Z" fill="#4c5a6b"/><path d="M169.08,176.78a18,18,0,0,0,14.39-28.88,2.36,2.36,0,0,0-3.75,2.88A13.23,13.23,0,1,1,156.65,163a2.36,2.36,0,0,0-4.48,1.48,18.44,18.44,0,0,0,15.38,12.26C168.06,176.75,168.57,176.78,169.08,176.78Z" fill="#4c5a6b"/><path d="M301.21,139.73a25.65,25.65,0,0,0,.67-11.31,24.5,24.5,0,0,0-3.69-9.72,24.39,24.39,0,0,0,10.74-15.76c2.65-12.2-1.53-24.8-11.19-33.68a38.88,38.88,0,0,0-32-10.13,26.84,26.84,0,0,0-6.65-22.38C253.6,30.63,245.41,26.54,236,25.23c-5.72-.79-14.1-.84-21.53,3.45-6.89,4-11.21,11-11.22,18.17a.51.51,0,0,0,0,.13v77h0v88a2.43,2.43,0,0,0,0,1V231.7c-.3,6,4.1,14.84,9.14,18.39,5.68,4,13.18,6.07,21.38,6.07a53.87,53.87,0,0,0,14-1.91c10-2.72,19.92-11,27.07-22.7,4.25-7,6.09-14.59,5.21-21.55a19.75,19.75,0,0,0,3.24.26c8.29,0,16-4.83,18.6-6.63a39.29,39.29,0,0,0-.64-63.9Zm-2.07,60c-5.6,3.9-13.82,7.22-20.34,5.08a23.33,23.33,0,0,0-10.42-12.71A21.66,21.66,0,0,0,273.12,182a22.05,22.05,0,0,0-6.69-19.53,2.36,2.36,0,1,0-3.19,3.49,16.83,16.83,0,0,1-20.82,26.33,2.36,2.36,0,0,0-2.65,3.91A21.92,21.92,0,0,0,252,199.87a21.39,21.39,0,0,0,8.33-1.66,20.63,20.63,0,0,0,4.46-2.62l.06,0c5.44,2.34,9.55,8.11,10.46,14.7.82,6-.79,12.64-4.53,18.76-6.53,10.69-15.38,18.19-24.27,20.59-12,3.25-23.74,2-31.42-3.45-4.09-2.88-7.4-10.45-7.14-14.39v-.08s0,0,0-.08V213.26a16.13,16.13,0,0,1,28.73,12.34,2.36,2.36,0,0,0,2,2.7,2.22,2.22,0,0,0,.37,0,2.37,2.37,0,0,0,2.33-2,20.78,20.78,0,0,0-33.4-19.6V131.42a21.48,21.48,0,0,0,14.31,6.05c.46,0,.91,0,1.35-.05A19.79,19.79,0,0,0,240,125.08a21.69,21.69,0,0,0,8.79,3.2,20.78,20.78,0,0,0,2.61.16A22.31,22.31,0,0,0,270,118.33a2.36,2.36,0,1,0-4-2.54,17.14,17.14,0,1,1-26.23-21.67,2.37,2.37,0,0,0-3.25-3.44,22.28,22.28,0,0,0-5.77,22.69,21.62,21.62,0,0,0,5.31,8.55,15.09,15.09,0,0,1-12.83,10.79c-5.95.5-12.82-3.69-15.27-9.21V84.62a31.75,31.75,0,0,0,5.62.51A27.79,27.79,0,0,0,224.48,83a22.29,22.29,0,0,0,12.89-14.26,18.12,18.12,0,0,0-5.51-18.57,2.36,2.36,0,1,0-3,3.64c3.7,3.06,5.33,8.68,4,13.68a17.84,17.84,0,0,1-10.2,11.17A24.75,24.75,0,0,1,208,79.8V47.74a2.26,2.26,0,0,0,0-.26c-.26-5.59,3.3-11.5,8.86-14.71,6.27-3.61,13.53-3.55,18.52-2.86,8.31,1.16,15.48,4.7,20.2,10,4.94,5.53,6.94,13.05,5.28,19.48a15.1,15.1,0,0,0-16.28-.25,2.36,2.36,0,0,0,2.56,4,10,10,0,0,1,14,13.45,2.37,2.37,0,0,0,4.08,2.4A15.1,15.1,0,0,0,265.14,64a34,34,0,0,1,29.4,8.69c8.53,7.86,12.09,18.5,9.77,29.21A19.33,19.33,0,0,1,295.06,115c-.37-.35-.75-.7-1.15-1-4.85-3.8-11.55-4.73-16.67-2.32a2.36,2.36,0,0,0,2,4.28c3.55-1.67,8.27-1,11.74,1.76a18,18,0,0,1,6.22,11.44A20.1,20.1,0,0,1,295.66,141a14.75,14.75,0,0,1-8.46,7.61,11.48,11.48,0,0,1-10.6-1.83,2.36,2.36,0,1,0-3,3.63,15.61,15.61,0,0,0,10,3.49,16.84,16.84,0,0,0,5.09-.79,19.17,19.17,0,0,0,10.67-9,34.58,34.58,0,0,1-.18,55.59Z" fill="#4c5a6b"/><path d="M247.26,161.47a2.37,2.37,0,0,0-3,1.5,13.23,13.23,0,1,1-23.06-12.19,2.36,2.36,0,0,0-3.75-2.88,18,18,0,0,0,14.39,28.88c.51,0,1,0,1.53-.07a18.45,18.45,0,0,0,15.38-12.26A2.36,2.36,0,0,0,247.26,161.47Z" fill="#4c5a6b"/><polygon points="379.21 176.97 354.74 178.04 323.38 220.19 336.98 224.89 302.56 272.86 366.56 219.16 346.91 214.14 379.21 176.97" fill="#ff758e" opacity="0.5"/><polygon points="20.79 176.97 45.26 178.04 76.62 220.19 63.02 224.89 97.44 272.86 33.45 219.16 53.09 214.14 20.79 176.97" fill="#3596e3" opacity="0.5"/></svg>