<svg id="Layer_1" data-name="Layer 1" xmlns="http://www.w3.org/2000/svg" viewBox="0 0 367.88 97.12"><path d="M33.12,22V91.29H18.92V22H4.25V9.76H47.67V22Z" fill="#3596e3"/><path d="M78.39,91.29V47.06c0-4.27-2-6.58-5.54-6.58-3.35,0-5.2,1.27-6.82,4.16a5.61,5.61,0,0,0-1.15,3.46V91.29H51.71V5.83H64.88V35.4c2.89-4.16,6.93-6.82,13.28-6.82,8.66,0,13.39,5.66,13.39,14.9V91.29Z" fill="#3596e3"/><path d="M108.3,18.07c-4.5,0-7.62-2.54-7.62-6.58,0-3.58,2.66-6.69,7.62-6.69,4.74,0,7.51,2.77,7.51,6.69C115.81,15.65,112.69,18.07,108.3,18.07Zm-6.7,73.22V29.74h13.28V91.29Z" fill="#3596e3"/><path d="M152.3,91.29V47.06c0-4.27-2-6.58-5.54-6.58-3.35,0-5.2,1.27-6.82,4.16a5.61,5.61,0,0,0-1.15,3.46V91.29H125.62V29.74h12.59v6.7c3-5.08,7.28-7.86,13.86-7.86,8.66,0,13.39,5.66,13.39,14.9V91.29Z" fill="#3596e3"/><path d="M175.63,91.29V5.83h13.16V56.65l11.55-26.91h14.78L203,54.22l13.62,37.07H201.73l-8.66-25.87-4.28,9.12V91.29Z" fill="#3596e3"/><path d="M238.1,21.65V45.21h18.6V56.65H238.1V91.29H224V9.76H257.5V21.65Z" fill="#ff758e"/><path d="M290.76,92.21c-5.08,0-7.62-3-8.42-7.62-2.89,5-6.7,7.74-12.25,7.74-7.73,0-12.7-6.7-12.58-17.09,0-14.67,9.12-19.63,20.44-19.63,2.77,0,3.23-.35,3.23-1.85V47.41c0-4.62-2.31-8.09-8-8.09a13.8,13.8,0,0,0-9.35,3.81l-3.35-10.39a25.37,25.37,0,0,1,14.55-4.16c11.43,0,18.71,5.43,18.71,18.13v32c0,2.08.23,3.47,1.61,3.47a1.91,1.91,0,0,0,1.39-.58l.58,9.58A23.1,23.1,0,0,1,290.76,92.21Zm-10.5-15.36a5.81,5.81,0,0,0,.92-3.58V64h-2.89c-5.19,0-8.89,2.77-8.89,9.35,0,4.39,1.73,7.74,5.2,7.74C277,81.13,278.64,79.63,280.26,76.85Z" fill="#ff758e"/><path d="M314.32,92.33c-5.19,0-9.93-1.27-12.93-3.58l3.46-10.86a11.65,11.65,0,0,0,8.2,3.35c4.16,0,6.7-2.54,6.7-6.47,0-10.27-17.55-9.93-17.55-28.4,0-9.82,6.7-17.79,17.67-17.79A20.46,20.46,0,0,1,332,32.05l-3.46,10.62a11.17,11.17,0,0,0-8-3.35c-3.7,0-6.24,2.2-6.24,6,0,9.47,17.9,9.47,17.9,28.64C332.22,84.71,325.18,92.33,314.32,92.33Z" fill="#ff758e"/><path d="M354.63,92.33c-9.47,0-14-6.12-14-17.21V41.52h-5V30.89h5V17.27l13.17-3.47V30.89h8.77V41.52h-8.77V72.81c0,5.55,1.5,8.43,4.85,8.43A5.89,5.89,0,0,0,362,80.09l1.61,10.51A22,22,0,0,1,354.63,92.33Z" fill="#ff758e"/></svg>